<?xml version="1.0" encoding="UTF-8"?><svg id="Layer_1" xmlns="http://www.w3.org/2000/svg" viewBox="0 0 1000 1000"><defs><style>.cls-1{fill:#a0a1a3;opacity:.23;}.cls-2{fill:#969799;opacity:.31;}.cls-3{fill:#8d8e90;opacity:.38;}.cls-4{fill:#676769;opacity:.69;}.cls-5{fill:#a9abad;opacity:.15;}.cls-6{fill:#4a4a4c;opacity:.92;}.cls-7{fill:#7a7a7c;opacity:.54;}.cls-8{fill:#838486;opacity:.46;}.cls-9{fill:#707072;opacity:.62;}.cls-10{fill:#5d5d5f;opacity:.77;}.cls-11{fill:#545355;opacity:.85;}.cls-12{fill:#414042;}</style></defs><g><polygon class="cls-5" points="500 390.18 -500 390.53 -500 428.99 500 445.92 1500 428.99 1500 390.53 500 390.18"/><polygon class="cls-1" points="500 353.02 -500 355.03 -500 393.49 500 408.76 1500 393.49 1500 355.03 500 353.02"/><polygon class="cls-2" points="500 315.86 -500 319.53 -500 357.99 500 371.6 1500 357.99 1500 319.53 500 315.86"/><polygon class="cls-3" points="500 278.7 -500 284.02 -500 322.49 500 334.44 1500 322.49 1500 284.02 500 278.7"/><polygon class="cls-8" points="500 241.54 -500 248.52 -500 286.98 500 297.28 1500 286.98 1500 248.52 500 241.54"/><polygon class="cls-7" points="500 204.38 -500 213.02 -500 251.48 500 260.12 1500 251.48 1500 213.02 500 204.38"/><polygon class="cls-9" points="500 167.22 -500 177.51 -500 215.98 500 222.96 1500 215.98 1500 177.51 500 167.22"/><polygon class="cls-4" points="500 130.06 -500 142.01 -500 180.47 500 185.8 1500 180.47 1500 142.01 500 130.06"/><polygon class="cls-10" points="500 92.9 -500 106.51 -500 144.97 500 148.64 1500 144.97 1500 106.51 500 92.9"/><polygon class="cls-11" points="500 55.74 -500 71.01 -500 109.47 500 111.48 1500 109.47 1500 71.01 500 55.74"/><polygon class="cls-6" points="500 18.58 -500 35.5 -500 73.96 500 74.32 1500 73.96 1500 35.5 500 18.58"/><polygon class="cls-12" points="500 0 -500 0 -500 38.46 500 37.16 1500 38.46 1500 0 500 0"/></g><g><polygon class="cls-5" points="500 609.82 1500 609.47 1500 571.01 500 554.08 -500 571.01 -500 609.47 500 609.82"/><polygon class="cls-1" points="500 646.98 1500 644.97 1500 606.51 500 591.24 -500 606.51 -500 644.97 500 646.98"/><polygon class="cls-2" points="500 684.14 1500 680.47 1500 642.01 500 628.4 -500 642.01 -500 680.47 500 684.14"/><polygon class="cls-3" points="500 721.3 1500 715.98 1500 677.51 500 665.56 -500 677.51 -500 715.98 500 721.3"/><polygon class="cls-8" points="500 758.46 1500 751.48 1500 713.02 500 702.72 -500 713.02 -500 751.48 500 758.46"/><polygon class="cls-7" points="500 795.62 1500 786.98 1500 748.52 500 739.88 -500 748.52 -500 786.98 500 795.62"/><polygon class="cls-9" points="500 832.78 1500 822.49 1500 784.02 500 777.04 -500 784.02 -500 822.49 500 832.78"/><polygon class="cls-4" points="500 869.94 1500 857.99 1500 819.53 500 814.2 -500 819.53 -500 857.99 500 869.94"/><polygon class="cls-10" points="500 907.1 1500 893.49 1500 855.03 500 851.36 -500 855.03 -500 893.49 500 907.1"/><polygon class="cls-11" points="500 944.26 1500 928.99 1500 890.53 500 888.52 -500 890.53 -500 928.99 500 944.26"/><polygon class="cls-6" points="500 981.42 1500 964.5 1500 926.04 500 925.68 -500 926.04 -500 964.5 500 981.42"/><polygon class="cls-12" points="500 1000 1500 1000 1500 961.54 500 962.84 -500 961.54 -500 1000 500 1000"/></g></svg>