<?xml version="1.0" encoding="UTF-8"?><svg id="Layer_2" xmlns="http://www.w3.org/2000/svg" viewBox="0 0 833.29 527.23"><defs><style>.cls-1{fill:#4d4d4d;opacity:.6;}.cls-2{fill:#3d3a3b;}.cls-3{fill:none;stroke:#260100;stroke-linecap:round;stroke-miterlimit:10;stroke-width:3px;}</style></defs><g id="Layer_1-2"><g id="Tape_Back"><path class="cls-1" d="M791.92,0H41.37C18.52,0,0,18.52,0,41.37V485.86c0,22.85,18.52,41.37,41.37,41.37H791.92c22.85,0,41.37-18.52,41.37-41.37V41.37c0-22.85-18.52-41.37-41.37-41.37ZM80.81,471.65c-2.62,0-4.74-2.12-4.74-4.74s2.12-4.74,4.74-4.74,4.74,2.12,4.74,4.74-2.12,4.74-4.74,4.74Zm88.69,41.53c-9.28,0-16.84-7.55-16.84-16.84s7.55-16.84,16.84-16.84,16.84,7.55,16.84,16.84-7.55,16.84-16.84,16.84Zm92.57-14.66c-9.28,0-16.84-7.55-16.84-16.84s7.55-16.84,16.84-16.84,16.83,7.55,16.83,16.84-7.55,16.84-16.83,16.84Zm309.15,0c-9.28,0-16.84-7.55-16.84-16.84s7.55-16.84,16.84-16.84,16.84,7.55,16.84,16.84-7.55,16.84-16.84,16.84Zm27.06-204.29H235.02c-31.81,0-57.84-26.03-57.84-57.84h0c0-31.81,26.03-57.84,57.84-57.84h363.26c31.81,0,57.84,26.03,57.84,57.84h0c0,31.81-26.03,57.84-57.84,57.84Zm65.51,218.95c-9.28,0-16.84-7.55-16.84-16.84s7.55-16.84,16.84-16.84,16.84,7.55,16.84,16.84-7.55,16.84-16.84,16.84Zm88.69-41.53c-2.62,0-4.74-2.12-4.74-4.74s2.12-4.74,4.74-4.74,4.74,2.12,4.74,4.74-2.12,4.74-4.74,4.74Z"/><path class="cls-2" d="M752.48,463.17c2.06,0,3.74,1.68,3.74,3.74s-1.68,3.74-3.74,3.74-3.74-1.68-3.74-3.74,1.68-3.74,3.74-3.74m-671.67,0c2.06,0,3.74,1.68,3.74,3.74s-1.68,3.74-3.74,3.74-3.74-1.68-3.74-3.74,1.68-3.74,3.74-3.74m671.67-1c-2.62,0-4.74,2.12-4.74,4.74s2.12,4.74,4.74,4.74,4.74-2.12,4.74-4.74-2.12-4.74-4.74-4.74h0Zm-671.67,0c-2.62,0-4.74,2.12-4.74,4.74s2.12,4.74,4.74,4.74,4.74-2.12,4.74-4.74-2.12-4.74-4.74-4.74h0Z"/><path class="cls-3" d="M116.71,173.87c-22.5,30.98-57.06,268.6-61.44,280.5-.73,1.98-4.23,10.42-1.51,19.35,1.26,4.14,3.56,7.41,4.71,9.05,1.84,2.61,6.32,7.21,10.68,10,5.19,3.32,20.57,11.21,51.16,29.54,25.52,.22,303.63-5.03,333.89-4.75,0,0,245.62,2.17,258.33-.59,5.71-1.24,16.68-5.69,46.71-22.12,2.1-1.15,6.75-3.2,11.66-7.69,.52-.48,2.5-2.32,4.47-5.24,2.73-4.04,3.96-7.92,4.41-9.85,1.77-7.6-1.59-14.8-2.88-17.55-43.41-109.73-95.63-279.54-145.16-292.19"/></g></g></svg>