<?xml version="1.0" encoding="UTF-8"?><svg id="Face_B" xmlns="http://www.w3.org/2000/svg" xmlns:xlink="http://www.w3.org/1999/xlink" viewBox="0 0 835 530"><defs><style>.cls-1{stroke:#231f20;}.cls-1,.cls-2,.cls-3{fill:none;}.cls-1,.cls-3{stroke-miterlimit:10;}.cls-4{fill:#1d1a1b;}.cls-5{clip-path:url(#clippath);}.cls-6{fill:#4cffd8;}.cls-3{stroke:#1d1a1b;stroke-width:2px;}.cls-7{fill:#231f20;}.cls-8{fill:#f2eadc;}</style><clipPath id="clippath"><path class="cls-2" d="M774.98,33.89H59.32c-10.63,0-19.24,8.62-19.24,19.24V351.4c0,10.63,8.61,19.24,19.24,19.24H774.98c10.63,0,19.24-8.61,19.24-19.24V53.12c0-10.62-8.61-19.24-19.24-19.24Zm-176.2,261.98H235.52c-31.81,0-57.84-26.03-57.84-57.84,0-15.91,6.51-30.37,16.99-40.85,10.48-10.47,24.94-16.99,40.85-16.99h363.27c31.81,0,57.84,26.03,57.84,57.84s-26.03,57.84-57.84,57.84Z"/></clipPath></defs><g class="cls-5"><path class="cls-8" d="M774.98,33.89H59.32c-10.63,0-19.24,8.62-19.24,19.24V351.4c0,10.63,8.61,19.24,19.24,19.24H774.98c10.63,0,19.24-8.61,19.24-19.24V53.12c0-10.62-8.61-19.24-19.24-19.24Zm-176.2,261.98H235.52c-31.81,0-57.84-26.03-57.84-57.84,0-15.91,6.51-30.37,16.99-40.85,10.48-10.47,24.94-16.99,40.85-16.99h363.27c31.81,0,57.84,26.03,57.84,57.84s-26.03,57.84-57.84,57.84Z"/><g><path class="cls-6" d="M794.22,244.96h-138.03c-.65,5.35-2.02,10.49-4.04,15.3h142.07v-15.3Z"/><path class="cls-6" d="M40.08,220.16v15.3H177.75c.24-5.31,1.2-10.44,2.79-15.3H40.08Z"/><path class="cls-6" d="M182.15,260.25c-2.02-4.81-3.39-9.94-4.04-15.3H40.08v15.3H182.15Z"/><path class="cls-6" d="M649.69,210.67h144.53v-30.48h-195.44c21.93,0,41.11,12.37,50.91,30.48Z"/><path class="cls-6" d="M647.06,269.75c-10.37,15.7-28.17,26.12-48.28,26.12h195.44v-26.12h-147.15Z"/><path class="cls-6" d="M187.23,269.75H40.08v26.12H235.52c-20.12,0-37.91-10.42-48.28-26.12Z"/><path class="cls-6" d="M653.76,220.16c1.59,4.85,2.55,9.98,2.79,15.3h137.67v-15.3h-140.45Z"/><path class="cls-6" d="M184.61,210.67c2.69-4.98,6.09-9.52,10.06-13.49,10.48-10.47,24.94-16.99,40.85-16.99H40.08v30.48H184.61Z"/></g><g><line class="cls-1" x1="249.24" y1="116" x2="585.76" y2="116"/><line class="cls-1" x1="249.24" y1="158.07" x2="585.76" y2="158.07"/></g></g><g id="Side"><rect class="cls-6" x="51.14" y="331.01" width="28.64" height="28.64" rx="5.27" ry="5.27"/><path class="cls-8" d="M64.63,355.28h-6.88v-20.73h6.58c4.25,0,7.93,1.26,7.93,5.29,0,2.48-1.76,3.95-3.8,4.46,2.21,.36,4.7,1.59,4.7,4.91,0,4.79-4.04,6.07-8.53,6.07Zm-.48-17.26h-1.49v4.82h1.67c2.09,0,2.99-.75,2.99-2.48,0-1.65-.99-2.33-3.17-2.33Zm.51,8.11h-2v5.56h1.79c1.94,0,3.65-.42,3.65-2.69,0-2.15-1.35-2.87-3.44-2.87Z"/></g><g id="Publik_Rekord_Logo"><path class="cls-6" d="M772.58,341.25l-2.5,4.33-4.88-8.45-4.88,8.45-2.5-4.33-9.46,16.39h33.68l-9.46-16.39Zm-7.38,.31l3.6,6.24-2.02,3.5h-3.16l-2.02-3.5,3.6-6.24Zm-13,13.86l5.62-9.74,1.22,2.12-.55,.96c-1.22,2.11,.31,4.76,2.75,4.76h1.11l1.1,1.91h-11.25Zm14.76,0l1.1-1.91h1.11c2.44,0,3.97-2.64,2.75-4.76l-.55-.96,1.22-2.12,5.62,9.74h-11.25Zm-17.4,4.77s-.05-.02-.05-.05v-2.35s.02-.05,.05-.05h1.12c.63,0,1.05,.4,1.05,.98s-.46,.94-1.05,.94h-.24v.48s-.02,.05-.05,.05h-.83Zm.88-1.68v.45h.13c.15,0,.23-.11,.23-.22s-.08-.22-.23-.22h-.13Zm3.27-.73s.02-.05,.05-.05h.83s.05,.02,.05,.05v1.18c0,.79-.49,1.27-1.33,1.27s-1.33-.47-1.33-1.27v-1.18s.02-.05,.05-.05h.83s.05,.02,.05,.05v1.16c0,.34,.15,.51,.4,.51s.4-.18,.4-.51v-1.16Zm1.32,2.4s-.05-.02-.05-.05v-2.35s.02-.05,.05-.05h1.46c.57,0,.87,.31,.87,.69,0,.18-.07,.32-.19,.44h0c.17,.13,.27,.33,.27,.56,0,.47-.35,.76-.96,.76h-1.45Zm.88-1.53h.35c.12,0,.16-.05,.16-.12s-.05-.12-.18-.12h-.33v.25Zm0,.84h.38c.15,0,.22-.05,.22-.14s-.07-.15-.22-.15h-.38v.29Zm2.71-.08h.94s.06,.03,.06,.06v.66s-.03,.06-.06,.06h-1.82s-.05-.02-.05-.05v-2.35s.02-.05,.05-.05h.83s.05,.02,.05,.05v1.63Zm2.18,.73s-.02,.05-.05,.05h-.83s-.05-.02-.05-.05v-2.35s.02-.05,.05-.05h.83s.05,.02,.05,.05v2.35Zm1.28-1.56h.01s.07-.1,.16-.22l.45-.57s.07-.06,.11-.06h.91s.05,.03,.05,.05c0,.01,0,.02-.03,.06l-.77,.98,.85,1.29s.02,.03,.02,.04,0,.03-.04,.03h-.99s-.07-.01-.09-.04l-.4-.62-.23,.29v.32s-.02,.05-.05,.05h-.83s-.05-.02-.05-.05v-2.35s.02-.05,.05-.05h.83s.05,.02,.05,.05v.79Zm2.86-.79s.02-.05,.05-.05h1.32c.63,0,1.05,.4,1.05,.96,0,.32-.16,.57-.39,.73h0s.04,.06,.08,.13l.31,.53s.02,.04,.02,.06-.01,.03-.04,.03h-.94s-.04,0-.06-.03l-.31-.54h-.16v.52s-.02,.05-.05,.05h-.83s-.05-.02-.05-.05v-2.35Zm.93,.73v.37h.34c.16,0,.22-.1,.22-.18s-.06-.18-.22-.18h-.34Zm2.69,.8v.18h1.23s.06,.03,.06,.06v.58s-.03,.06-.06,.06h-2.11s-.05-.02-.05-.05v-2.35s.02-.05,.05-.05h2.11s.06,.03,.06,.06v.58s-.03,.06-.06,.06h-1.23v.18h1.1s.06,.03,.06,.06v.58s-.03,.06-.06,.06h-1.1Zm2.49-.73h.01s.07-.1,.16-.22l.45-.57s.07-.06,.11-.06h.91s.05,.03,.05,.05c0,.01,0,.02-.03,.06l-.77,.98,.85,1.29s.02,.03,.02,.04,0,.03-.04,.03h-.99s-.07-.01-.09-.04l-.4-.62-.23,.29v.32s-.02,.05-.05,.05h-.83s-.05-.02-.05-.05v-2.35s.02-.05,.05-.05h.83s.05,.02,.05,.05v.79Zm4.44,.38c0,.79-.65,1.27-1.41,1.27s-1.41-.47-1.41-1.27,.65-1.27,1.41-1.27,1.41,.47,1.41,1.27Zm-1.88,0c0,.3,.22,.49,.47,.49s.47-.18,.47-.49-.22-.49-.47-.49-.47,.18-.47,.49Zm2.13-1.18s.02-.05,.05-.05h1.32c.63,0,1.05,.4,1.05,.96,0,.32-.16,.57-.39,.73h0s.04,.06,.08,.13l.31,.53s.02,.04,.02,.06-.01,.03-.04,.03h-.94s-.04,0-.06-.03l-.31-.54h-.16v.52s-.02,.05-.05,.05h-.83s-.05-.02-.05-.05v-2.35Zm.93,.73v.37h.34c.16,0,.22-.1,.22-.18s-.06-.18-.22-.18h-.34Zm1.81,1.68s-.05-.02-.05-.05v-2.35s.02-.05,.05-.05h1.09c.83,0,1.41,.48,1.41,1.23s-.48,1.23-1.4,1.23h-1.1Zm.88-1.68v.9h.21c.31,0,.47-.17,.47-.45s-.18-.45-.47-.45h-.21Z"/></g><path class="cls-4" d="M774.98,35.88c9.51,0,17.24,7.73,17.24,17.24V351.4c0,9.5-7.73,17.23-17.24,17.23H59.32c-9.51,0-17.24-7.73-17.24-17.23V53.12c0-9.51,7.73-17.24,17.24-17.24H774.98m0-2H59.32c-10.63,0-19.24,8.62-19.24,19.24V351.4c0,10.62,8.61,19.23,19.24,19.23H774.98c10.63,0,19.24-8.61,19.24-19.23V53.12c0-10.62-8.61-19.24-19.24-19.24h0Z"/><path class="cls-3" d="M598.78,295.86H235.52c-31.81,0-57.84-26.03-57.84-57.84,0-15.91,6.51-30.37,16.99-40.85,10.48-10.47,24.94-16.99,40.85-16.99h363.27c31.81,0,57.84,26.03,57.84,57.84s-26.03,57.84-57.84,57.84Z"/><path class="cls-7" d="M288.48,54.52c-9.04,4.81-12.73,16.75-6.94,25.47,5.66,8.53,18.11,10.63,25.94,3.9s8.71-18.76,1.13-25.9-21.91-3.83-23.53,7.36c-.82,5.67,7.85,8.11,8.68,2.39s7.58-6.07,10.25-1.2c2.27,4.14,.02,9.7-4.13,11.71s-9.19-.1-11.26-3.89c-2.49-4.56,.18-9.82,4.4-12.07,5.11-2.72,.57-10.5-4.54-7.77h0Z"/><path class="cls-7" d="M297.44,77.08c-11.52,.87-22.72,8.24-23.24,20.73-.48,11.4,9.36,20.16,20.65,18.04s16.65-14.03,12.61-24.17c-4.29-10.77-17.85-13.89-27.3-8.03-4.91,3.05-.4,10.84,4.54,7.77s12.27-2.16,14.53,3.84c1.98,5.25-1.09,11.33-6.85,11.9-6.32,.63-10.21-4.95-8.97-10.85,1.36-6.46,7.95-9.77,14.02-10.22,5.74-.43,5.79-9.43,0-9h0Z"/><path class="cls-7" d="M329.87,57.05c-7.98,10.12-16.59,22.38-12.88,36.03,2.89,10.64,14.74,18.7,25.41,13.42,10.03-4.96,12.79-18.08,5.12-26.44s-21.53-6.16-27.13,3.62c-2.88,5.04,4.89,9.57,7.77,4.54,3.05-5.32,10.57-6.33,13.84-.56s-2.14,12.88-8.59,11.26c-7.23-1.81-9.11-10.21-7.81-16.57,1.47-7.21,6.18-13.3,10.64-18.95,3.55-4.5-2.78-10.91-6.36-6.36h0Z"/><path class="cls-7" d="M359.41,107.16l.79,.79c.41,.44,.89,.75,1.45,.93,.54,.28,1.11,.41,1.73,.39,.62,.02,1.2-.11,1.73-.39,.56-.18,1.04-.49,1.45-.93l.7-.91c.41-.7,.61-1.46,.61-2.27l-.16-1.2c-.21-.76-.6-1.42-1.16-1.99l-.79-.79c-.41-.44-.89-.75-1.45-.93-.54-.28-1.11-.41-1.73-.39-.62-.02-1.2,.11-1.73,.39-.56,.18-1.04,.49-1.45,.93l-.7,.91c-.41,.7-.61,1.46-.61,2.27l.16,1.2c.21,.76,.6,1.42,1.16,1.99h0Z"/><path class="cls-7" d="M391.34,70.54c-6.57,10.39-11.94,23.65-11.67,36.16,.25,11.6,11.36,16.56,20.47,9.57,7.88-6.04,16.73-17.77,10.1-27.74-2.79-4.19-7.9-5.81-12.72-5.19-6.1,.78-10.59,5-14.31,9.59s2.72,10.87,6.36,6.36c2.44-3.02,13-12.71,13.95-3.23,.45,4.47-7.24,14.41-11.95,14.54-5.79,.16-1.7-13.7-.88-16.73,1.81-6.72,4.7-12.93,8.41-18.8,3.11-4.91-4.68-9.43-7.77-4.54h0Z"/><path class="cls-7" d="M447.58,71.13c-2.68,14.58-5.37,29.15-8.05,43.73l8.22-1.07c-.59-1.32-1.19-2.65-1.78-3.97-2.37-5.28-10.13-.7-7.77,4.54,.59,1.32,1.19,2.65,1.78,3.97,1.55,3.45,7.55,2.6,8.22-1.07,2.68-14.58,5.37-29.15,8.05-43.73,1.04-5.66-7.63-8.09-8.68-2.39h0Z"/><path class="cls-7" d="M454.98,77.7c4.06-2.85,8.44-4.96,13.35-5.87,4.27-.79,11.94,0,6.43,5.96-3.26,3.52-8.43,5.89-12.42,8.45-4.74,3.04-9.48,6.08-14.22,9.13-4.86,3.12-.35,10.91,4.54,7.77,7.79-5,15.73-9.83,23.39-15.02,5.48-3.72,10.97-9.13,9.41-16.44-3.43-16.03-26.65-7.62-35.03-1.74-4.71,3.3-.21,11.11,4.54,7.77h0Z"/><path class="cls-7" d="M464.4,95.32c3.63,7.03,7.25,14.05,10.88,21.08,2.66,5.15,10.43,.6,7.77-4.54-3.63-7.03-7.25-14.05-10.88-21.08-2.66-5.15-10.43-.6-7.77,4.54h0Z"/><path class="cls-7" d="M495.53,84.01c-3.34,9.34-6.68,18.68-10.02,28.01-.98,2.73,1.57,5.78,4.34,5.7,4.43-.14,8.85-.28,13.28-.41,5.78-.18,5.8-9.18,0-9-4.43,.14-8.85,.28-13.28,.41l4.34,5.7c3.34-9.34,6.68-18.68,10.02-28.01,1.95-5.46-6.74-7.82-8.68-2.39h0Z"/><path class="cls-7" d="M496.65,101.48l6.35,.94c2.32,.34,4.95-.58,5.54-3.14,.49-2.14-.65-5.17-3.14-5.54l-6.35-.94c-2.32-.34-4.95,.58-5.54,3.14-.49,2.14,.65,5.17,3.14,5.54h0Z"/><path class="cls-7" d="M499.86,90.65l18.99,3.16c5.67,.94,8.1-7.73,2.39-8.68l-18.99-3.16c-5.67-.94-8.1,7.73-2.39,8.68h0Z"/><path class="cls-7" d="M539.26,85.45c-12.06-.81-28.06,7.09-28.28,20.89-.09,5.93,3.39,10.89,8.66,13.41,6.76,3.24,14.13,1.71,21.07-.12,5.6-1.48,3.22-10.16-2.39-8.68-5.02,1.32-21.4,4.31-17.91-6.5,2.45-7.58,11.72-10.48,18.85-10,5.78,.39,5.76-8.61,0-9h0Z"/><path class="cls-7" d="M414.65,134.84v-2.55c0-3.86-6-3.87-6,0,0,8.76,0,17.52,0,26.28,0,3.86,6,3.87,6,0,0-8.76,0-17.52,0-26.28h-6v2.55c0,3.86,6,3.87,6,0h0Z"/><path class="cls-7" d="M418.39,127.7l1.2,28.5c.16,3.85,6.16,3.87,6,0l-1.2-28.5c-.16-3.85-6.16-3.87-6,0h0Z"/><path class="cls-7" d="M442.35,122.27c-5.89,13.68-11.77,27.36-17.66,41.03-1.51,3.51,3.66,6.57,5.18,3.03,5.89-13.68,11.77-27.36,17.66-41.03,1.51-3.51-3.66-6.57-5.18-3.03h0Z"/><path class="cls-7" d="M450.58,133.25c0,7.65,0,15.3,0,22.95,0,3.86,6,3.87,6,0,0-7.65,0-15.3,0-22.95,0-3.86-6-3.87-6,0h0Z"/><path class="cls-7" d="M469.22,138.77c1.66-1.23,3.56-2.76,5.6-3.28,4.91-1.27,4.96,3.88,3.21,6.84-1.41,2.38-7.77,11.19-11.17,8.26-4.29-3.7,7.11-1.95,8.44-1.71,4.91,.91,9.82,1.82,14.73,2.73,3.77,.7,5.39-5.08,1.6-5.79-6.32-1.17-12.63-2.54-18.98-3.51-3.46-.53-7.44-.71-10.36,1.55-6.69,5.15,.06,13.92,7.03,13.17,7.69-.82,16.62-11.97,15.99-19.56-.32-3.82-2.71-7.22-6.57-8.13-4.54-1.06-9.08,1.64-12.55,4.23-3.06,2.28-.07,7.49,3.03,5.18h0Z"/></svg>