<?xml version="1.0" encoding="UTF-8"?><svg id="Face_A" xmlns="http://www.w3.org/2000/svg" xmlns:xlink="http://www.w3.org/1999/xlink" viewBox="0 0 835 530"><defs><style>.cls-1{stroke:#231f20;}.cls-1,.cls-2,.cls-3{fill:none;}.cls-1,.cls-3{stroke-miterlimit:10;}.cls-4{fill:#1d1a1b;}.cls-5{fill:#f090a4;}.cls-6{clip-path:url(#clippath);}.cls-3{stroke:#1d1a1b;stroke-width:2px;}.cls-7{fill:#231f20;}.cls-8{fill:#f2eadc;}</style><clipPath id="clippath"><path id="Face" class="cls-2" d="M774.98,33.89H59.32c-10.63,0-19.24,8.62-19.24,19.24V351.4c0,10.63,8.61,19.24,19.24,19.24H774.98c10.63,0,19.24-8.61,19.24-19.24V53.12c0-10.62-8.61-19.24-19.24-19.24Zm-176.2,261.98H235.52c-31.81,0-57.84-26.03-57.84-57.84,0-15.91,6.51-30.37,16.99-40.85,10.48-10.47,24.94-16.99,40.85-16.99h363.27c31.81,0,57.84,26.03,57.84,57.84s-26.03,57.84-57.84,57.84Z"/></clipPath></defs><g class="cls-6"><path id="Face-2" class="cls-8" d="M774.98,33.89H59.32c-10.63,0-19.24,8.62-19.24,19.24V351.4c0,10.63,8.61,19.24,19.24,19.24H774.98c10.63,0,19.24-8.61,19.24-19.24V53.12c0-10.62-8.61-19.24-19.24-19.24Zm-176.2,261.98H235.52c-31.81,0-57.84-26.03-57.84-57.84,0-15.91,6.51-30.37,16.99-40.85,10.48-10.47,24.94-16.99,40.85-16.99h363.27c31.81,0,57.84,26.03,57.84,57.84s-26.03,57.84-57.84,57.84Z"/><g><path class="cls-5" d="M794.22,244.96h-138.03c-.65,5.35-2.02,10.49-4.04,15.3h142.07v-15.3Z"/><path class="cls-5" d="M40.08,220.16v15.3H177.75c.24-5.31,1.2-10.44,2.79-15.3H40.08Z"/><path class="cls-5" d="M182.15,260.25c-2.02-4.81-3.39-9.94-4.04-15.3H40.08v15.3H182.15Z"/><path class="cls-5" d="M649.69,210.67h144.53v-30.48h-195.44c21.93,0,41.11,12.37,50.91,30.48Z"/><path class="cls-5" d="M647.06,269.75c-10.37,15.7-28.17,26.12-48.28,26.12h195.44v-26.12h-147.15Z"/><path class="cls-5" d="M187.23,269.75H40.08v26.12H235.52c-20.12,0-37.91-10.42-48.28-26.12Z"/><path class="cls-5" d="M653.76,220.16c1.59,4.85,2.55,9.98,2.79,15.3h137.67v-15.3h-140.45Z"/><path class="cls-5" d="M184.61,210.67c2.69-4.98,6.09-9.52,10.06-13.49,10.48-10.47,24.94-16.99,40.85-16.99H40.08v30.48H184.61Z"/></g><g><line class="cls-1" x1="249.24" y1="116" x2="585.76" y2="116"/><line class="cls-1" x1="249.24" y1="158.07" x2="585.76" y2="158.07"/></g><g><path class="cls-7" d="M301.69,97.59c.28-.37,.56-.74,.84-1.11,9.67,.64,19.81-2.61,29.59-3.37,5.71-.8,3.28-9.47-2.39-8.68-8.33,1.17-16.65,2.33-24.98,3.5-7.51-5.41-11.82,8.31-16.39,12.45-2.3,3.04,1.56,7.99,5.08,6.61,5.45-2.42,12.99,.47,14.42,6.52,.35,3.25-3.71,4.38-3.93,.9-.37-5.75-9.37-5.79-9,0,.37,5.78,4.4,11.11,10.6,11.33,19.15-1.72,11.45-26.3-3.85-28.13Z"/><path class="cls-7" d="M335.23,118.17c-.56-.13-1.1-.15-1.63-.09-6.91-7.59-12.81,7.06-4.64,10.07,6.24,3.38,14.07-7,6.27-9.98Z"/><path class="cls-7" d="M358.08,96.1c1.32-1.92,2.7-3.8,3.99-5.74,10.11-1.81,20.21-3.62,30.32-5.44,5.69-1.02,3.28-9.7-2.39-8.68-11.65,2.09-23.29,4.18-34.94,6.26-3.29,.59-3.87,3.73-2.68,6.09-2.68,4.49-13.29,14.65-2.93,16.53,4.26-.44,11.37-1.69,14.23,2.53,3.46,6.59-6.49,4.98-9.63,2.83-5.38-2.16-7.71,6.55-2.39,8.68,23.45,11.12,31.5-20.98,6.43-23.07Z"/><path class="cls-7" d="M526.94,88.93c-7.9-10.35-19.55-9.4-27.6-2.77-1.98-7.08-21.43,1.9-27.45,2.03-3.24,.72-3.27,3.35-3.3,5.78-.21,6.28-6.84,10.89-6.37,17.44-6.05-3.49-11.46-7.92-15.97-13.3,16.39-19.76-5.15-36.03-24.12-22.54-5.09,2.78-.55,10.55,4.54,7.77,3.66-2,8.31-4.91,12.68-3.63,5.13,1.5,3.91,6.96,1.47,10.36-1.2,2.61-4.57,3.38-5.58,5.91-3.39,2.82-7.33,5.12-11.31,6.92l1.69-8.55c1.12-5.66-7.55-8.08-8.68-2.39-1.94,9.77-3.87,19.54-5.81,29.32-1.12,5.66,7.55,8.08,8.68,2.39,.68-3.42,1.36-6.85,2.03-10.27,5.41-1.95,12.1-5.07,17.79-9.28,4.87,5.53,22.54,22.66,29.94,17.57,4.86,1.57,11.09,.34,15.69-1.5,5.31-2.13,2.99-10.84-2.39-8.68-5.04,3-15.69,4.02-9.92-4.72,4.64-.12,14.22,1.48,14.89-4.98-.24-5.83-6.72-4.36-10.69-3.97,.14-.55,.24-1.1,.31-1.67,5.46-1.21,10.92-2.42,16.37-3.64-13.8,19.95,13.95,45.79,27.15,21.27,2.22-5.34-6.49-7.68-8.68-2.39-1.78,4.28-7.36,3.81-10.17,1.08-9.74-9.27,6.82-31.37,17.01-19,3.47,4.54,11.29,.06,7.77-4.54Z"/><path class="cls-7" d="M285.89,96.85c4.28-6.06-1.69-27.03-10.65-18.15-26.16-6.02-21.52,35.13,2.66,25.76,.69,5.25,1.39,10.5,2.08,15.76,.75,5.66,9.76,5.73,9,0-1.03-7.79-2.06-15.58-3.09-23.37Zm-15.87-.26c-6.62-2.16-3.28-12.44,2.99-9.14,.94,.5,1.86,.63,2.71,.52,.3,2.26,.6,4.52,.9,6.78-1.34,1.84-3.56,2.83-6.59,1.84Z"/><path class="cls-7" d="M412.57,157.46c-1.25-9.53-2.5-19.07-3.75-28.6-.49-3.77-6.5-3.82-6,0,1.25,9.53,2.5,19.07,3.75,28.6,.49,3.77,6.5,3.82,6,0Z"/><path class="cls-7" d="M430.47,122.79c-4.98,15.31-11.77,29.84-20.28,43.51-2.05,3.29,3.14,6.3,5.18,3.03,2.83-2.97,32.55-59.65,15.09-46.53Z"/><path class="cls-7" d="M450.77,137.65c-3.56-2.05-7.48-1.89-10.86-.36,1.97-3.1,4.72-5.81,7.21-8.32,2.73-2.74-1.51-6.98-4.24-4.24-6.93,6.96-14.87,16.53-10.32,26.92,10.18,20.13,36.48,.02,18.21-14.01Zm-5.77,16.5c-3.93,.05-6.4-2.82-7.3-6.21,6.65-15.04,21.66,3.24,7.3,6.21Z"/><path class="cls-7" d="M390.01,127.29c.63,10.06,1.25,20.13,1.88,30.19,.24,3.84,6.24,3.86,6,0-.63-10.06-1.25-20.13-1.88-30.19-.24-3.84-6.24-3.86-6,0Z"/></g></g><g id="Side"><rect class="cls-5" x="51.14" y="331.01" width="28.64" height="28.64" rx="5.27" ry="5.27"/><path class="cls-8" d="M63.25,334.55h4.41l9.02,20.73h-4.54l-1.41-3.29h-10.52l-1.41,3.29h-4.57l9.02-20.73Zm6.08,13.95l-2.4-5.92c-.64-1.57-1.44-3.65-1.47-3.71-.03,.06-.83,2.14-1.47,3.71l-2.4,5.92h7.74Z"/></g><g id="Publik_Rekord_Logo"><path class="cls-5" d="M772.58,341.25l-2.5,4.33-4.88-8.45-4.88,8.45-2.5-4.33-9.46,16.39h33.68l-9.46-16.39Zm-7.38,.31l3.6,6.24-2.02,3.5h-3.16l-2.02-3.5,3.6-6.24Zm-13,13.86l5.62-9.74,1.22,2.12-.55,.96c-1.22,2.11,.31,4.76,2.75,4.76h1.11l1.1,1.91h-11.25Zm14.76,0l1.1-1.91h1.11c2.44,0,3.97-2.64,2.75-4.76l-.55-.96,1.22-2.12,5.62,9.74h-11.25Zm-17.4,4.77s-.05-.02-.05-.05v-2.35s.02-.05,.05-.05h1.12c.63,0,1.05,.4,1.05,.98s-.46,.94-1.05,.94h-.24v.48s-.02,.05-.05,.05h-.83Zm.88-1.68v.45h.13c.15,0,.23-.11,.23-.22s-.08-.22-.23-.22h-.13Zm3.27-.73s.02-.05,.05-.05h.83s.05,.02,.05,.05v1.18c0,.79-.49,1.27-1.33,1.27s-1.33-.47-1.33-1.27v-1.18s.02-.05,.05-.05h.83s.05,.02,.05,.05v1.16c0,.34,.15,.51,.4,.51s.4-.18,.4-.51v-1.16Zm1.32,2.4s-.05-.02-.05-.05v-2.35s.02-.05,.05-.05h1.46c.57,0,.87,.31,.87,.69,0,.18-.07,.32-.19,.44h0c.17,.13,.27,.33,.27,.56,0,.47-.35,.76-.96,.76h-1.45Zm.88-1.53h.35c.12,0,.16-.05,.16-.12s-.05-.12-.18-.12h-.33v.25Zm0,.84h.38c.15,0,.22-.05,.22-.14s-.07-.15-.22-.15h-.38v.29Zm2.71-.08h.94s.06,.03,.06,.06v.66s-.03,.06-.06,.06h-1.82s-.05-.02-.05-.05v-2.35s.02-.05,.05-.05h.83s.05,.02,.05,.05v1.63Zm2.18,.73s-.02,.05-.05,.05h-.83s-.05-.02-.05-.05v-2.35s.02-.05,.05-.05h.83s.05,.02,.05,.05v2.35Zm1.28-1.56h.01s.07-.1,.16-.22l.45-.57s.07-.06,.11-.06h.91s.05,.03,.05,.05c0,.01,0,.02-.03,.06l-.77,.98,.85,1.29s.02,.03,.02,.04,0,.03-.04,.03h-.99s-.07-.01-.09-.04l-.4-.62-.23,.29v.32s-.02,.05-.05,.05h-.83s-.05-.02-.05-.05v-2.35s.02-.05,.05-.05h.83s.05,.02,.05,.05v.79Zm2.86-.79s.02-.05,.05-.05h1.32c.63,0,1.05,.4,1.05,.96,0,.32-.16,.57-.39,.73h0s.04,.06,.08,.13l.31,.53s.02,.04,.02,.06-.01,.03-.04,.03h-.94s-.04,0-.06-.03l-.31-.54h-.16v.52s-.02,.05-.05,.05h-.83s-.05-.02-.05-.05v-2.35Zm.93,.73v.37h.34c.16,0,.22-.1,.22-.18s-.06-.18-.22-.18h-.34Zm2.69,.8v.18h1.23s.06,.03,.06,.06v.58s-.03,.06-.06,.06h-2.11s-.05-.02-.05-.05v-2.35s.02-.05,.05-.05h2.11s.06,.03,.06,.06v.58s-.03,.06-.06,.06h-1.23v.18h1.1s.06,.03,.06,.06v.58s-.03,.06-.06,.06h-1.1Zm2.49-.73h.01s.07-.1,.16-.22l.45-.57s.07-.06,.11-.06h.91s.05,.03,.05,.05c0,.01,0,.02-.03,.06l-.77,.98,.85,1.29s.02,.03,.02,.04,0,.03-.04,.03h-.99s-.07-.01-.09-.04l-.4-.62-.23,.29v.32s-.02,.05-.05,.05h-.83s-.05-.02-.05-.05v-2.35s.02-.05,.05-.05h.83s.05,.02,.05,.05v.79Zm4.44,.38c0,.79-.65,1.27-1.41,1.27s-1.41-.47-1.41-1.27,.65-1.27,1.41-1.27,1.41,.47,1.41,1.27Zm-1.88,0c0,.3,.22,.49,.47,.49s.47-.18,.47-.49-.22-.49-.47-.49-.47,.18-.47,.49Zm2.13-1.18s.02-.05,.05-.05h1.32c.63,0,1.05,.4,1.05,.96,0,.32-.16,.57-.39,.73h0s.04,.06,.08,.13l.31,.53s.02,.04,.02,.06-.01,.03-.04,.03h-.94s-.04,0-.06-.03l-.31-.54h-.16v.52s-.02,.05-.05,.05h-.83s-.05-.02-.05-.05v-2.35Zm.93,.73v.37h.34c.16,0,.22-.1,.22-.18s-.06-.18-.22-.18h-.34Zm1.81,1.68s-.05-.02-.05-.05v-2.35s.02-.05,.05-.05h1.09c.83,0,1.41,.48,1.41,1.23s-.48,1.23-1.4,1.23h-1.1Zm.88-1.68v.9h.21c.31,0,.47-.17,.47-.45s-.18-.45-.47-.45h-.21Z"/></g><path class="cls-4" d="M774.98,35.88c9.51,0,17.24,7.73,17.24,17.24V351.4c0,9.5-7.73,17.23-17.24,17.23H59.32c-9.51,0-17.24-7.73-17.24-17.23V53.12c0-9.51,7.73-17.24,17.24-17.24H774.98m0-2H59.32c-10.63,0-19.24,8.62-19.24,19.24V351.4c0,10.62,8.61,19.23,19.24,19.23H774.98c10.63,0,19.24-8.61,19.24-19.23V53.12c0-10.62-8.61-19.24-19.24-19.24h0Z"/><path class="cls-3" d="M598.78,295.86H235.52c-31.81,0-57.84-26.03-57.84-57.84,0-15.91,6.51-30.37,16.99-40.85,10.48-10.47,24.94-16.99,40.85-16.99h363.27c31.81,0,57.84,26.03,57.84,57.84s-26.03,57.84-57.84,57.84Z"/></svg>