<?xml version="1.0" encoding="UTF-8"?><svg xmlns="http://www.w3.org/2000/svg" viewBox="0 0 833.3 527.23"><defs><style>.cls-1{opacity:.6;}.cls-2{isolation:isolate;}.cls-3{fill:#1d1a1b;}.cls-4{fill:#f090a4;}.cls-5{fill:#1b142f;}.cls-6{fill:#333;}.cls-7{fill:#2d2a2b;}.cls-8{fill:#ccc;}.cls-9{mix-blend-mode:overlay;}.cls-10{fill:#1a1a1a;}.cls-11{fill:#3d3a3b;}.cls-12{fill:#666;}</style></defs><g class="cls-2"><g id="Layer_2"><g id="Layer_1-2"><g id="Tape_Front"><g class="cls-1"><path class="cls-12" d="M791.93,0H41.37C18.53,0,0,18.52,0,41.36V485.86c0,22.85,18.53,41.36,41.37,41.36H791.93c22.84,0,41.37-18.52,41.37-41.36V41.36c0-22.85-18.53-41.36-41.37-41.36ZM80.82,471.65c-2.62,0-4.74-2.12-4.74-4.74s2.12-4.74,4.74-4.74,4.74,2.12,4.74,4.74-2.12,4.74-4.74,4.74Zm88.69,41.53c-9.28,0-16.84-7.55-16.84-16.84s7.55-16.84,16.84-16.84,16.84,7.55,16.84,16.84-7.55,16.84-16.84,16.84Zm92.57-14.66c-9.28,0-16.84-7.55-16.84-16.84s7.55-16.84,16.84-16.84,16.83,7.55,16.83,16.84-7.55,16.84-16.83,16.84Zm-20.38-216.21c-25.37,0-45.92-20.55-45.92-45.92s20.56-45.93,45.92-45.93,45.93,20.57,45.93,45.93-20.56,45.92-45.93,45.92Zm329.52,216.21c-9.28,0-16.84-7.55-16.84-16.84s7.55-16.84,16.84-16.84,16.84,7.55,16.84,16.84-7.55,16.84-16.84,16.84Zm20.75-216.21c-25.37,0-45.93-20.55-45.93-45.92s20.57-45.93,45.93-45.93,45.94,20.57,45.94,45.93-20.57,45.92-45.94,45.92Zm71.82,230.86c-9.28,0-16.84-7.55-16.84-16.84s7.55-16.84,16.84-16.84,16.84,7.55,16.84,16.84-7.55,16.84-16.84,16.84Zm88.69-41.53c-2.62,0-4.74-2.12-4.74-4.74s2.12-4.74,4.74-4.74,4.74,2.12,4.74,4.74-2.12,4.74-4.74,4.74Z"/></g><g><path class="cls-4" d="M774.48,32.25H58.82c-10.63,0-19.24,8.62-19.24,19.24V349.77c0,10.63,8.61,19.24,19.24,19.24H774.48c10.63,0,19.24-8.61,19.24-19.24V51.49c0-10.62-8.61-19.24-19.24-19.24Zm-176.2,261.98H235.02c-31.81,0-57.84-26.03-57.84-57.84,0-15.91,6.51-30.37,16.99-40.85,10.48-10.47,24.94-16.99,40.85-16.99h363.27c31.81,0,57.84,26.03,57.84,57.84s-26.03,57.84-57.84,57.84Z"/><path class="cls-3" d="M774.48,34.25c9.51,0,17.24,7.73,17.24,17.24V349.77c0,9.5-7.73,17.23-17.24,17.23H58.82c-9.51,0-17.24-7.73-17.24-17.23V51.49c0-9.51,7.73-17.24,17.24-17.24H774.48m0-2H58.82c-10.63,0-19.24,8.62-19.24,19.24V349.77c0,10.62,8.61,19.23,19.24,19.23H774.48c10.63,0,19.24-8.61,19.24-19.23V51.49c0-10.62-8.61-19.24-19.24-19.24h0Z"/></g><g><g><path class="cls-3" d="M25.54,515.05c-4.46,0-8.66-1.95-11.52-5.36-5.34-6.35-4.52-15.86,1.83-21.2,2.71-2.28,6.15-3.54,9.68-3.54,4.46,0,8.66,1.95,11.52,5.36,5.34,6.35,4.52,15.86-1.83,21.21-2.71,2.28-6.15,3.53-9.68,3.53Z"/><circle class="cls-6" cx="25.53" cy="500" r="13.71"/><path class="cls-10" d="M27.2,500.14c2.31-2.04,4.48-4.22,6.25-6.8-2.85,1.3-5.36,3.06-7.77,4.99-2.04-2.31-4.22-4.48-6.8-6.25,1.3,2.85,3.06,5.36,4.99,7.77-2.32,2.04-4.48,4.21-6.25,6.8,2.85-1.3,5.36-3.06,7.77-4.99,2.04,2.32,4.21,4.48,6.8,6.25-1.3-2.85-3.06-5.37-4.99-7.77Z"/></g><g><path class="cls-3" d="M807.79,515.05c-.92,0-1.84-.09-2.75-.25-3.95-.73-7.38-2.96-9.66-6.27-2.28-3.31-3.13-7.31-2.4-11.27,1.32-7.14,7.54-12.31,14.78-12.31,.92,0,1.84,.09,2.75,.25,3.95,.73,7.38,2.96,9.66,6.27,2.28,3.31,3.13,7.31,2.4,11.27-1.32,7.14-7.54,12.31-14.78,12.31Z"/><circle class="cls-6" cx="807.77" cy="500" r="13.71"/><path class="cls-10" d="M808.72,501.38c3.05,.49,6.1,.78,9.22,.5-2.82-1.37-5.77-2.2-8.79-2.83,.49-3.05,.78-6.1,.5-9.22-1.37,2.82-2.2,5.77-2.83,8.79-3.05-.49-6.1-.78-9.22-.5,2.81,1.38,5.77,2.2,8.79,2.83-.49,3.05-.78,6.1-.5,9.22,1.38-2.82,2.2-5.77,2.83-8.79Z"/></g><g><path class="cls-3" d="M25.55,40.13c-5.32,0-10.14-2.71-12.89-7.26-2.08-3.44-2.7-7.48-1.74-11.39s3.38-7.2,6.82-9.28c2.35-1.42,5.04-2.18,7.78-2.18,5.32,0,10.14,2.71,12.89,7.26,2.08,3.44,2.7,7.48,1.74,11.39-.96,3.9-3.38,7.2-6.82,9.28-2.35,1.42-5.04,2.18-7.78,2.18Z"/><circle class="cls-6" cx="25.53" cy="25.08" r="13.71"/><path class="cls-10" d="M25.13,26.7c1.66,2.6,3.47,5.07,5.75,7.22-.85-3.02-2.19-5.77-3.73-8.45,2.6-1.66,5.08-3.47,7.22-5.75-3.02,.85-5.77,2.19-8.45,3.73-1.66-2.6-3.47-5.08-5.76-7.22,.84,3.02,2.19,5.77,3.73,8.45-2.6,1.66-5.08,3.47-7.22,5.76,3.02-.84,5.77-2.19,8.45-3.73Z"/></g><g><path class="cls-3" d="M807.79,40.13c-.89,0-1.78-.08-2.66-.24-3.96-.71-7.4-2.91-9.7-6.21-2.3-3.3-3.17-7.29-2.47-11.25,1.28-7.19,7.51-12.41,14.8-12.41,.89,0,1.78,.08,2.66,.24,3.96,.71,7.4,2.91,9.7,6.21,2.3,3.3,3.17,7.29,2.47,11.25-1.28,7.19-7.51,12.41-14.8,12.41Z"/><circle class="cls-6" cx="807.77" cy="25.08" r="13.71"/><path class="cls-10" d="M808.73,26.45c3.05,.47,6.1,.74,9.22,.45-2.83-1.36-5.78-2.16-8.81-2.78,.47-3.05,.74-6.11,.45-9.23-1.36,2.82-2.16,5.78-2.78,8.81-3.05-.47-6.11-.74-9.23-.44,2.82,1.36,5.78,2.17,8.81,2.78-.47,3.05-.74,6.1-.44,9.22,1.36-2.82,2.17-5.78,2.78-8.81Z"/></g></g><g><path class="cls-3" d="M80.82,439.5c-15.11,0-27.41,12.3-27.41,27.41s12.3,27.41,27.41,27.41,27.41-12.3,27.41-27.41-12.3-27.41-27.41-27.41Zm0,32.15c-2.62,0-4.74-2.12-4.74-4.74s2.12-4.74,4.74-4.74,4.74,2.12,4.74,4.74-2.12,4.74-4.74,4.74Z"/><path class="cls-3" d="M752.49,439.5c-15.11,0-27.41,12.3-27.41,27.41s12.3,27.41,27.41,27.41,27.41-12.3,27.41-27.41-12.3-27.41-27.41-27.41Zm0,32.15c-2.62,0-4.74-2.12-4.74-4.74s2.12-4.74,4.74-4.74,4.74,2.12,4.74,4.74-2.12,4.74-4.74,4.74Z"/></g><g><path class="cls-7" d="M80.82,442.5c-13.48,0-24.41,10.93-24.41,24.41s10.93,24.41,24.41,24.41,24.41-10.93,24.41-24.41-10.93-24.41-24.41-24.41Zm0,29.15c-2.62,0-4.74-2.12-4.74-4.74s2.12-4.74,4.74-4.74,4.74,2.12,4.74,4.74-2.12,4.74-4.74,4.74Z"/><path class="cls-7" d="M752.49,442.5c-13.48,0-24.41,10.93-24.41,24.41s10.93,24.41,24.41,24.41,24.41-10.93,24.41-24.41-10.93-24.41-24.41-24.41Zm0,29.15c-2.62,0-4.74-2.12-4.74-4.74s2.12-4.74,4.74-4.74,4.74,2.12,4.74,4.74-2.12,4.74-4.74,4.74Z"/></g><g><path class="cls-3" d="M687.54,401.72c-.47-1.61-1.95-2.72-3.63-2.72H149.39c-1.68,0-3.16,1.11-3.63,2.72l-36.9,125.5H724.44l-36.9-125.5Zm-518.03,111.46c-9.28,0-16.84-7.55-16.84-16.84s7.55-16.84,16.84-16.84,16.84,7.55,16.84,16.84-7.55,16.84-16.84,16.84Zm92.57-14.66c-9.28,0-16.84-7.55-16.84-16.84s7.55-16.84,16.84-16.84,16.83,7.55,16.83,16.84-7.55,16.84-16.83,16.84Zm309.15,0c-9.28,0-16.84-7.55-16.84-16.84s7.55-16.84,16.84-16.84,16.84,7.55,16.84,16.84-7.55,16.84-16.84,16.84Zm92.57,14.66c-9.28,0-16.84-7.55-16.84-16.84s7.55-16.84,16.84-16.84,16.84,7.55,16.84,16.84-7.55,16.84-16.84,16.84Z"/><path class="cls-11" d="M684.71,405.51c-.47-1.61-1.95-2.72-3.64-2.72H152.23c-1.68,0-3.16,1.11-3.64,2.73l-34.68,118.44H719.39l-34.69-118.44Zm-515.2,107.68c-9.28,0-16.84-7.55-16.84-16.84s7.55-16.84,16.84-16.84,16.84,7.55,16.84,16.84-7.55,16.84-16.84,16.84Zm92.57-14.66c-9.28,0-16.84-7.55-16.84-16.84s7.55-16.84,16.84-16.84,16.83,7.55,16.83,16.84-7.55,16.84-16.83,16.84Zm309.15,0c-9.28,0-16.84-7.55-16.84-16.84s7.55-16.84,16.84-16.84,16.84,7.55,16.84,16.84-7.55,16.84-16.84,16.84Zm92.57,14.66c-9.28,0-16.84-7.55-16.84-16.84s7.55-16.84,16.84-16.84,16.84,7.55,16.84,16.84-7.55,16.84-16.84,16.84Z"/><path class="cls-7" d="M683.71,406.91c-.48-1.61-1.99-2.72-3.71-2.72H153.3c-1.72,0-3.23,1.11-3.71,2.73l-34.53,115.62H718.24l-34.54-115.62Zm-514.2,106.27c-9.28,0-16.84-7.55-16.84-16.84s7.55-16.84,16.84-16.84,16.84,7.55,16.84,16.84-7.55,16.84-16.84,16.84Zm92.57-14.66c-9.28,0-16.84-7.55-16.84-16.84s7.55-16.84,16.84-16.84,16.83,7.55,16.83,16.84-7.55,16.84-16.83,16.84Zm309.15,0c-9.28,0-16.84-7.55-16.84-16.84s7.55-16.84,16.84-16.84,16.84,7.55,16.84,16.84-7.55,16.84-16.84,16.84Zm92.57,14.66c-9.28,0-16.84-7.55-16.84-16.84s7.55-16.84,16.84-16.84,16.84,7.55,16.84,16.84-7.55,16.84-16.84,16.84Z"/></g><g><path class="cls-3" d="M416.65,444.24c-4.02,0-7.8-1.57-10.64-4.41-5.87-5.87-5.87-15.42,0-21.28,2.84-2.84,6.62-4.41,10.64-4.41s7.8,1.57,10.64,4.41c2.84,2.84,4.41,6.62,4.41,10.64s-1.57,7.8-4.41,10.64c-2.84,2.84-6.62,4.41-10.64,4.41Z"/><circle class="cls-6" cx="416.65" cy="429.19" r="13.71"/><path class="cls-10" d="M418.33,429.19c2.13-2.23,4.1-4.58,5.64-7.31-2.73,1.54-5.08,3.51-7.31,5.64-2.23-2.13-4.59-4.1-7.31-5.64,1.54,2.73,3.51,5.08,5.64,7.31-2.13,2.23-4.1,4.58-5.64,7.31,2.73-1.54,5.08-3.51,7.31-5.64,2.23,2.13,4.58,4.1,7.31,5.64-1.54-2.73-3.51-5.08-5.64-7.31Z"/></g><g class="cls-9"><rect class="cls-8" x="50.64" y="329.37" width="28.64" height="28.64" rx="5.27" ry="5.27"/><path d="M62.75,332.92h4.41l9.02,20.73h-4.54l-1.41-3.29h-10.52l-1.41,3.29h-4.57l9.02-20.73Zm6.08,13.95l-2.4-5.92c-.64-1.57-1.44-3.65-1.47-3.71-.03,.06-.83,2.14-1.47,3.71l-2.4,5.92h7.74Z"/></g><g id="Lower_Holes"><path class="cls-3" d="M571.22,466.85c8.18,0,14.84,6.66,14.84,14.84s-6.66,14.84-14.84,14.84-14.84-6.66-14.84-14.84,6.66-14.84,14.84-14.84m-309.15,0c8.18,0,14.83,6.66,14.83,14.84s-6.65,14.84-14.83,14.84-14.84-6.66-14.84-14.84,6.66-14.84,14.84-14.84m401.72,14.66c8.18,0,14.84,6.66,14.84,14.84s-6.66,14.84-14.84,14.84-14.84-6.66-14.84-14.84,6.66-14.84,14.84-14.84m-494.28,0c8.18,0,14.84,6.66,14.84,14.84s-6.66,14.84-14.84,14.84-14.84-6.66-14.84-14.84,6.66-14.84,14.84-14.84m401.71-16.66c-9.28,0-16.84,7.55-16.84,16.84s7.55,16.84,16.84,16.84,16.84-7.55,16.84-16.84-7.55-16.84-16.84-16.84h0Zm-309.15,0c-9.28,0-16.84,7.55-16.84,16.84s7.55,16.84,16.84,16.84,16.83-7.55,16.83-16.84-7.55-16.84-16.83-16.84h0Zm401.72,14.66c-9.28,0-16.84,7.55-16.84,16.84s7.55,16.84,16.84,16.84,16.84-7.55,16.84-16.84-7.55-16.84-16.84-16.84h0Zm-494.28,0c-9.28,0-16.84,7.55-16.84,16.84s7.55,16.84,16.84,16.84,16.84-7.55,16.84-16.84-7.55-16.84-16.84-16.84h0Z"/></g><g id="Publik_Rekord_Logo"><path class="cls-5" d="M772.08,339.61l-2.5,4.33-4.88-8.45-4.88,8.45-2.5-4.33-9.46,16.39h33.68l-9.46-16.39Zm-7.38,.31l3.6,6.24-2.02,3.5h-3.16l-2.02-3.5,3.6-6.24Zm-13,13.86l5.62-9.74,1.22,2.12-.55,.96c-1.22,2.11,.31,4.76,2.75,4.76h1.11l1.1,1.91h-11.25Zm14.76,0l1.1-1.91h1.11c2.44,0,3.97-2.64,2.75-4.76l-.55-.96,1.22-2.12,5.62,9.74h-11.25Zm-17.4,4.77s-.05-.02-.05-.05v-2.35s.02-.05,.05-.05h1.12c.63,0,1.05,.4,1.05,.98s-.46,.94-1.05,.94h-.24v.48s-.02,.05-.05,.05h-.83Zm.88-1.68v.45h.13c.15,0,.23-.11,.23-.22s-.08-.22-.23-.22h-.13Zm3.27-.73s.02-.05,.05-.05h.83s.05,.02,.05,.05v1.18c0,.79-.49,1.27-1.33,1.27s-1.33-.47-1.33-1.27v-1.18s.02-.05,.05-.05h.83s.05,.02,.05,.05v1.16c0,.34,.15,.51,.4,.51s.4-.18,.4-.51v-1.16Zm1.32,2.4s-.05-.02-.05-.05v-2.35s.02-.05,.05-.05h1.46c.57,0,.87,.31,.87,.69,0,.18-.07,.32-.19,.44h0c.17,.13,.27,.33,.27,.56,0,.47-.35,.76-.96,.76h-1.45Zm.88-1.53h.35c.12,0,.16-.05,.16-.12s-.05-.12-.18-.12h-.33v.25Zm0,.84h.38c.15,0,.22-.05,.22-.14s-.07-.15-.22-.15h-.38v.29Zm2.71-.08h.94s.06,.03,.06,.06v.66s-.03,.06-.06,.06h-1.82s-.05-.02-.05-.05v-2.35s.02-.05,.05-.05h.83s.05,.02,.05,.05v1.63Zm2.18,.73s-.02,.05-.05,.05h-.83s-.05-.02-.05-.05v-2.35s.02-.05,.05-.05h.83s.05,.02,.05,.05v2.35Zm1.28-1.56h.01s.07-.1,.16-.22l.45-.57s.07-.06,.11-.06h.91s.05,.03,.05,.05c0,.01,0,.02-.03,.06l-.77,.98,.85,1.29s.02,.03,.02,.04,0,.03-.04,.03h-.99s-.07-.01-.09-.04l-.4-.62-.23,.29v.32s-.02,.05-.05,.05h-.83s-.05-.02-.05-.05v-2.35s.02-.05,.05-.05h.83s.05,.02,.05,.05v.79Zm2.86-.79s.02-.05,.05-.05h1.32c.63,0,1.05,.4,1.05,.96,0,.32-.16,.57-.39,.73h0s.04,.06,.08,.13l.31,.53s.02,.04,.02,.06-.01,.03-.04,.03h-.94s-.04,0-.06-.03l-.31-.54h-.16v.52s-.02,.05-.05,.05h-.83s-.05-.02-.05-.05v-2.35Zm.93,.73v.37h.34c.16,0,.22-.1,.22-.18s-.06-.18-.22-.18h-.34Zm2.69,.8v.18h1.23s.06,.03,.06,.06v.58s-.03,.06-.06,.06h-2.11s-.05-.02-.05-.05v-2.35s.02-.05,.05-.05h2.11s.06,.03,.06,.06v.58s-.03,.06-.06,.06h-1.23v.18h1.1s.06,.03,.06,.06v.58s-.03,.06-.06,.06h-1.1Zm2.49-.73h.01s.07-.1,.16-.22l.45-.57s.07-.06,.11-.06h.91s.05,.03,.05,.05c0,.01,0,.02-.03,.06l-.77,.98,.85,1.29s.02,.03,.02,.04,0,.03-.04,.03h-.99s-.07-.01-.09-.04l-.4-.62-.23,.29v.32s-.02,.05-.05,.05h-.83s-.05-.02-.05-.05v-2.35s.02-.05,.05-.05h.83s.05,.02,.05,.05v.79Zm4.44,.38c0,.79-.65,1.27-1.41,1.27s-1.41-.47-1.41-1.27,.65-1.27,1.41-1.27,1.41,.47,1.41,1.27Zm-1.88,0c0,.3,.22,.49,.47,.49s.47-.18,.47-.49-.22-.49-.47-.49-.47,.18-.47,.49Zm2.13-1.18s.02-.05,.05-.05h1.32c.63,0,1.05,.4,1.05,.96,0,.32-.16,.57-.39,.73h0s.04,.06,.08,.13l.31,.53s.02,.04,.02,.06-.01,.03-.04,.03h-.94s-.04,0-.06-.03l-.31-.54h-.16v.52s-.02,.05-.05,.05h-.83s-.05-.02-.05-.05v-2.35Zm.93,.73v.37h.34c.16,0,.22-.1,.22-.18s-.06-.18-.22-.18h-.34Zm1.81,1.68s-.05-.02-.05-.05v-2.35s.02-.05,.05-.05h1.09c.83,0,1.41,.48,1.41,1.23s-.48,1.23-1.4,1.23h-1.1Zm.88-1.68v.9h.21c.31,0,.47-.17,.47-.45s-.18-.45-.47-.45h-.21Z"/></g></g></g></g></g></svg>