<?xml version="1.0" encoding="UTF-8"?><svg id="Layer_2" xmlns="http://www.w3.org/2000/svg" viewBox="0 0 142.88 142.87"><defs><style>.cls-1{fill:#e6e6e6;}.cls-2{fill:#f2f2f2;}</style></defs><g id="Layer_1-2"><g id="Right_Gear"><path class="cls-1" d="M71.44,0C32.05,0,0,32.04,0,71.43s32.05,71.44,71.44,71.44,71.44-32.04,71.44-71.44S110.84,0,71.44,0Zm63.11,57.35l-13.65,2.56s-.04,.02-.06,.02c-1.41-6.07-3.91-11.74-7.29-16.76,.02-.01,.04-.02,.06-.03l11.19-8.23c4.58,6.68,7.93,14.27,9.75,22.44Zm-17.19,14.08c0,25.38-20.56,45.93-45.93,45.93s-45.93-20.55-45.93-45.93S46.06,25.51,71.43,25.51s45.93,20.56,45.93,45.92Zm4.82-40.07l-11.18,8.22s-.04,.05-.06,.07c-3.84-4.77-8.53-8.82-13.83-11.95,.02-.02,.04-.03,.05-.06l6.51-12.26c7.14,4.11,13.42,9.55,18.51,15.98Zm-46.57-10.54l.54-13.86c8.43,.6,16.41,2.81,23.63,6.34l-6.51,12.28s-.01,.04-.02,.06c-5.42-2.6-11.38-4.24-17.65-4.76,0-.02,.01-.04,.01-.06Zm-4.17-14.05c.1,0,.2,0,.31,0l-.54,13.87s.01,.03,.01,.05c-6.33,.03-12.38,1.22-17.97,3.37,0-.01,0-.03-.01-.05l-5.53-12.74c7.35-2.9,15.35-4.51,23.73-4.51Zm-27.78,6.26l5.54,12.75s.02,.02,.03,.04c-5.55,2.71-10.52,6.41-14.71,10.85-.02-.01-.03-.04-.05-.06l-10.51-9.06c5.56-6.01,12.23-10.96,19.7-14.52ZM21.08,30.89l10.51,9.06s.04,.02,.06,.04c-3.77,4.76-6.71,10.21-8.59,16.13-.01-.01-.02-.02-.03-.02l-13.43-3.62c2.44-7.96,6.38-15.27,11.48-21.59ZM6.78,71.43c0-5.05,.59-9.97,1.69-14.69l13.41,3.62h.04c-.8,3.57-1.23,7.27-1.23,11.07,0,2.44,.18,4.84,.52,7.19h-.04l-13.66,2.56c-.48-3.18-.73-6.43-.73-9.75Zm1.55,14.09l13.65-2.57s.03-.01,.04-.01c1.41,6.07,3.91,11.74,7.29,16.76-.01,.01-.03,.01-.04,.02l-11.19,8.24c-4.58-6.68-7.93-14.27-9.75-22.44Zm12.37,25.98l11.18-8.22s.03-.04,.05-.05c3.84,4.76,8.52,8.82,13.82,11.94-.01,.02-.02,.03-.03,.05l-6.51,12.27c-7.14-4.12-13.42-9.56-18.51-15.99Zm46.57,10.54l-.54,13.87c-8.42-.61-16.41-2.81-23.63-6.34l6.51-12.28s.01-.03,.02-.05c5.42,2.59,11.38,4.24,17.65,4.75,0,.02-.01,.03-.01,.05Zm4.17,14.06c-.1,0-.2,0-.3,0l.54-13.87s-.01-.04-.01-.06c6.32-.03,12.37-1.23,17.96-3.38,0,.02,0,.04,0,.06l5.54,12.75c-7.35,2.9-15.35,4.51-23.74,4.51Zm27.79-6.26l-5.55-12.75s-.02-.04-.03-.05c5.54-2.72,10.52-6.41,14.71-10.86,.02,.02,.03,.05,.05,.07l10.52,9.07c-5.56,6.01-12.23,10.96-19.7,14.52Zm22.58-17.86l-10.52-9.07s-.05-.03-.07-.04c3.77-4.77,6.71-10.21,8.59-16.13,.02,0,.03,.02,.05,.02l13.42,3.62c-2.43,7.97-6.37,15.27-11.47,21.6Zm-.81-29.47s-.04-.01-.06-.01c.8-3.57,1.23-7.27,1.23-11.07,0-2.44-.18-4.83-.52-7.18,.02-.01,.04,0,.06-.01l13.66-2.56c.48,3.18,.74,6.44,.74,9.75,0,5.06-.6,9.97-1.7,14.69l-13.41-3.61Z"/><g><rect class="cls-2" x="95.01" y="36.36" width="8.71" height="14.29" transform="translate(59.86 -57.52) rotate(45)"/><rect class="cls-2" x="39.15" y="92.22" width="8.71" height="14.29" transform="translate(83 -1.66) rotate(45)"/><rect class="cls-2" x="28.92" y="54.06" width="8.71" height="14.29" transform="translate(-34.46 77.51) rotate(-75)"/><rect class="cls-2" x="105.23" y="74.51" width="8.71" height="14.29" transform="translate(2.35 166.37) rotate(-75)"/><rect class="cls-2" x="77.3" y="102.44" width="8.71" height="14.29" transform="translate(188.89 194.3) rotate(165)"/><rect class="cls-2" x="56.85" y="26.13" width="8.71" height="14.29" transform="translate(128.94 49.58) rotate(165)"/></g></g></g></svg>