<?xml version="1.0" encoding="UTF-8"?><svg id="Layer_2" xmlns="http://www.w3.org/2000/svg" viewBox="0 0 142.88 142.87"><defs><style>.cls-1{fill:#e6e6e6;}.cls-2{fill:#f2f2f2;}</style></defs><g id="Layer_1-2"><g id="Left_Gear"><g><rect class="cls-2" x="106.59" y="64.29" width="8.71" height="14.29" transform="translate(182.37 -39.51) rotate(90)"/><rect class="cls-2" x="27.59" y="64.29" width="8.71" height="14.29" transform="translate(103.37 39.49) rotate(90)"/><rect class="cls-2" x="47.34" y="30.08" width="8.71" height="14.29" transform="translate(-11.69 30.83) rotate(-30)"/><rect class="cls-2" x="86.84" y="98.49" width="8.71" height="14.29" transform="translate(-40.6 59.75) rotate(-30)"/><rect class="cls-2" x="47.34" y="98.49" width="8.71" height="14.29" transform="translate(43.64 222.97) rotate(-150)"/><rect class="cls-2" x="86.84" y="30.08" width="8.71" height="14.29" transform="translate(151.55 115.06) rotate(-150)"/></g><path class="cls-1" d="M71.44,0C32.05,0,0,32.04,0,71.43s32.05,71.44,71.44,71.44,71.44-32.04,71.44-71.44S110.84,0,71.44,0Zm64.61,69.22h-13.87s-.04,.01-.06,.01c-.27-6.3-1.69-12.31-4.07-17.82,.02,0,.04,0,.06,0l12.51-6.03c3.24,7.34,5.15,15.38,5.43,23.85Zm-7.34-27.82l-12.51,6.03s-.03,.02-.05,.03c-2.92-5.42-6.81-10.25-11.42-14.27,.02-.02,.05-.03,.07-.05l8.65-10.85c6.22,5.32,11.42,11.8,15.26,19.11Zm-11.34,30.03c0,25.38-20.56,45.93-45.93,45.93s-45.93-20.55-45.93-45.93S46.08,25.51,71.44,25.51s45.93,20.56,45.93,45.92ZM84.88,22.46l3.09-13.55c8.07,2.12,15.53,5.77,22.04,10.62l-8.66,10.86s-.02,.05-.03,.07c-4.9-3.58-10.46-6.3-16.47-7.95,0-.02,.02-.04,.03-.05Zm-13.44-15.69c4.18,0,8.27,.41,12.23,1.17l-3.09,13.53s0,.05,0,.07c-2.97-.55-6.02-.84-9.14-.84s-6.17,.29-9.14,.84v-.06l-3.09-13.54c3.96-.76,8.05-1.17,12.23-1.17Zm-16.53,2.14l3.09,13.55s.02,.03,.02,.05c-6,1.65-11.56,4.37-16.46,7.95-.01-.02-.02-.05-.03-.07l-8.66-10.86c6.51-4.84,13.96-8.49,22.04-10.62Zm-25.48,13.39l8.65,10.84s.05,.04,.07,.06c-4.61,4.02-8.5,8.84-11.42,14.27-.01,0-.03-.03-.05-.04l-12.51-6.02c3.84-7.31,9.04-13.79,15.26-19.11ZM12.26,45.38l12.51,6.03s.04,0,.06,.01c-2.38,5.51-3.8,11.52-4.07,17.82-.02,0-.04-.01-.06-.01H6.83c.29-8.46,2.19-16.51,5.43-23.85Zm-5.43,28.27h13.87s.04-.02,.06-.02c.27,6.31,1.69,12.31,4.07,17.82-.02,.01-.04,0-.06,.01l-12.51,6.03c-3.24-7.33-5.14-15.38-5.43-23.84Zm7.34,27.81l12.52-6.03s.03-.02,.04-.03c2.92,5.43,6.81,10.25,11.42,14.27-.02,.02-.05,.03-.07,.05l-8.65,10.86c-6.22-5.33-11.42-11.81-15.26-19.12Zm43.84,18.95l-3.09,13.55c-8.08-2.13-15.54-5.77-22.05-10.62l8.66-10.87s.02-.04,.04-.06c4.89,3.58,10.45,6.3,16.46,7.95-.01,.01-.02,.03-.02,.05Zm13.43,15.69c-4.18,0-8.26-.41-12.22-1.17l3.09-13.54s-.01-.04,0-.06c2.96,.54,6.01,.84,9.13,.84s6.17-.3,9.14-.84v.06l3.09,13.54c-3.96,.76-8.04,1.17-12.23,1.17Zm16.54-2.14l-3.1-13.56s-.01-.03-.02-.04c6.01-1.65,11.57-4.37,16.46-7.96,.02,.02,.02,.05,.04,.07l8.66,10.87c-6.51,4.84-13.97,8.49-22.04,10.62Zm25.48-13.39l-8.66-10.85s-.04-.03-.06-.05c4.61-4.02,8.49-8.85,11.41-14.28,.02,.01,.03,.03,.05,.04l12.52,6.03c-3.84,7.31-9.04,13.79-15.26,19.11Zm17.17-23.09l-12.52-6.02s-.03-.01-.05-.02c2.37-5.51,3.79-11.52,4.06-17.82,.02,0,.04,.01,.06,.01h13.87c-.28,8.46-2.19,16.52-5.42,23.85Z"/></g></g></svg>