<?xml version="1.0" encoding="UTF-8"?><svg id="Layer_1" xmlns="http://www.w3.org/2000/svg" xmlns:xlink="http://www.w3.org/1999/xlink" viewBox="0 0 835 530"><defs><style>.cls-1,.cls-2{opacity:.6;}.cls-3{fill:#1d1a1b;}.cls-4{fill:#333;}.cls-5{clip-path:url(#clippath-1);}.cls-6{fill:#2d2a2b;}.cls-7{fill:#e6e6e6;}.cls-2{fill:#4d4d4d;}.cls-8{fill:#f1f2f2;}.cls-9{clip-path:url(#clippath);}.cls-10,.cls-11{fill:none;}.cls-12{fill:#260100;}.cls-13{fill:#1a1a1a;}.cls-14{fill:#3d3a3b;}.cls-15{fill:#666;}.cls-16{fill:#f2f2f2;}.cls-11{stroke:#260100;stroke-linecap:round;stroke-miterlimit:10;stroke-width:3px;}</style><clipPath id="clippath"><path id="_clip_" class="cls-10" d="M242.21,98.3c-77.18,0-139.74,62.56-139.74,139.73s62.56,139.73,139.74,139.73,139.73-62.56,139.73-139.73-62.56-139.73-139.73-139.73Zm-.01,190.42c-27.96,0-50.7-22.74-50.7-50.7s22.75-50.7,50.7-50.7,50.7,22.74,50.7,50.7-22.74,50.7-50.7,50.7Z"/></clipPath><clipPath id="clippath-1"><path id="_clip_-2" class="cls-10" d="M592.8,98.3c-77.18,0-139.74,62.56-139.74,139.73s62.56,139.73,139.74,139.73,139.73-62.56,139.73-139.73-62.56-139.73-139.73-139.73Zm-.01,190.42c-27.96,0-50.7-22.74-50.7-50.7s22.75-50.7,50.7-50.7,50.7,22.74,50.7,50.7-22.74,50.7-50.7,50.7Z"/></clipPath></defs><g id="Tape_Back"><path class="cls-2" d="M792.43,1.63H41.87C19.03,1.63,.5,20.15,.5,43V487.5c0,22.85,18.52,41.37,41.37,41.37H792.43c22.85,0,41.37-18.52,41.37-41.37V43c0-22.85-18.52-41.37-41.37-41.37ZM81.31,473.29c-2.62,0-4.74-2.12-4.74-4.74s2.12-4.74,4.74-4.74,4.74,2.12,4.74,4.74-2.12,4.74-4.74,4.74Zm88.69,41.53c-9.28,0-16.84-7.55-16.84-16.84s7.55-16.84,16.84-16.84,16.84,7.55,16.84,16.84-7.55,16.84-16.84,16.84Zm92.57-14.66c-9.28,0-16.84-7.55-16.84-16.84s7.55-16.84,16.84-16.84,16.83,7.55,16.83,16.84-7.55,16.84-16.83,16.84Zm309.15,0c-9.28,0-16.84-7.55-16.84-16.84s7.55-16.84,16.84-16.84,16.84,7.55,16.84,16.84-7.55,16.84-16.84,16.84Zm27.06-204.29H235.52c-31.81,0-57.84-26.03-57.84-57.84h0c0-31.81,26.03-57.84,57.84-57.84h363.26c31.81,0,57.84,26.03,57.84,57.84h0c0,31.81-26.03,57.84-57.84,57.84Zm65.51,218.95c-9.28,0-16.84-7.55-16.84-16.84s7.55-16.84,16.84-16.84,16.84,7.55,16.84,16.84-7.55,16.84-16.84,16.84Zm88.69-41.53c-2.62,0-4.74-2.12-4.74-4.74s2.12-4.74,4.74-4.74,4.74,2.12,4.74,4.74-2.12,4.74-4.74,4.74Z"/><path class="cls-14" d="M752.98,464.8c2.06,0,3.74,1.68,3.74,3.74s-1.68,3.74-3.74,3.74-3.74-1.68-3.74-3.74,1.68-3.74,3.74-3.74m-671.67,0c2.06,0,3.74,1.68,3.74,3.74s-1.68,3.74-3.74,3.74-3.74-1.68-3.74-3.74,1.68-3.74,3.74-3.74m671.67-1c-2.62,0-4.74,2.12-4.74,4.74s2.12,4.74,4.74,4.74,4.74-2.12,4.74-4.74-2.12-4.74-4.74-4.74h0Zm-671.67,0c-2.62,0-4.74,2.12-4.74,4.74s2.12,4.74,4.74,4.74,4.74-2.12,4.74-4.74-2.12-4.74-4.74-4.74h0Z"/><path class="cls-11" d="M117.22,175.5c-22.5,30.98-57.06,268.6-61.44,280.5-.73,1.98-4.23,10.42-1.51,19.35,1.26,4.14,3.56,7.41,4.71,9.05,1.84,2.61,6.32,7.21,10.68,10,5.19,3.32,20.57,11.21,51.16,29.54,25.52,.22,303.63-5.03,333.89-4.75,0,0,245.62,2.17,258.33-.59,5.71-1.24,16.68-5.69,46.71-22.12,2.1-1.15,6.75-3.2,11.66-7.69,.52-.48,2.5-2.32,4.47-5.24,2.73-4.04,3.96-7.92,4.41-9.85,1.77-7.6-1.59-14.8-2.88-17.55-43.41-109.73-95.63-279.54-145.16-292.19"/></g><g id="Left_Spool_Group"><g class="cls-9"><path id="Left_Spool" class="cls-12" d="M242.21,138.03c-55.23,0-100,44.77-100,100s44.77,100,100,100,100-44.77,100-100-44.77-100-100-100Z"/></g></g><g id="Right_Spool_Group"><g class="cls-5"><path id="Right_Spool" class="cls-12" d="M592.8,138.03c-55.23,0-100.01,44.77-100.01,100.01s44.77,99.99,100.01,99.99,99.99-44.77,99.99-99.99-44.77-100.01-99.99-100.01Z"/></g></g><g id="Left_Gear"><g><rect class="cls-16" x="277.34" y="230.88" width="8.71" height="14.29" transform="translate(519.73 -43.67) rotate(90)"/><rect class="cls-16" x="198.35" y="230.88" width="8.71" height="14.29" transform="translate(440.73 35.33) rotate(90)"/><rect class="cls-16" x="218.1" y="196.67" width="8.71" height="14.29" transform="translate(-72.11 138.53) rotate(-30)"/><rect class="cls-16" x="257.59" y="265.09" width="8.71" height="14.29" transform="translate(-101.02 167.45) rotate(-30)"/><rect class="cls-16" x="218.1" y="265.09" width="8.71" height="14.29" transform="translate(278.98 619.22) rotate(-150)"/><rect class="cls-16" x="257.59" y="196.67" width="8.71" height="14.29" transform="translate(386.9 511.31) rotate(-150)"/></g><path class="cls-7" d="M242.2,166.59c-39.39,0-71.44,32.04-71.44,71.43s32.05,71.44,71.44,71.44,71.44-32.04,71.44-71.44-32.04-71.43-71.44-71.43Zm64.61,69.22h-13.87s-.04,.01-.06,.01c-.27-6.3-1.69-12.31-4.07-17.82,.02,0,.04,0,.06,0l12.51-6.03c3.24,7.34,5.15,15.38,5.43,23.85Zm-7.34-27.82l-12.51,6.03s-.03,.02-.05,.03c-2.92-5.42-6.81-10.25-11.42-14.27,.02-.02,.05-.03,.07-.05l8.65-10.85c6.22,5.32,11.42,11.8,15.26,19.11Zm-11.34,30.03c0,25.38-20.56,45.93-45.93,45.93s-45.93-20.55-45.93-45.93,20.57-45.92,45.93-45.92,45.93,20.56,45.93,45.92Zm-32.49-48.97l3.09-13.55c8.07,2.12,15.53,5.77,22.04,10.62l-8.66,10.86s-.02,.05-.03,.07c-4.9-3.58-10.46-6.3-16.47-7.95,0-.02,.02-.04,.03-.05Zm-13.44-15.69c4.18,0,8.27,.41,12.23,1.17l-3.09,13.53s0,.05,0,.07c-2.97-.55-6.02-.84-9.14-.84s-6.17,.29-9.14,.84v-.06l-3.09-13.54c3.96-.76,8.05-1.17,12.23-1.17Zm-16.53,2.14l3.09,13.55s.02,.03,.02,.05c-6,1.65-11.56,4.37-16.46,7.95-.01-.02-.02-.05-.03-.07l-8.66-10.86c6.51-4.84,13.96-8.49,22.04-10.62Zm-25.48,13.39l8.65,10.84s.05,.04,.07,.06c-4.61,4.02-8.5,8.84-11.42,14.27-.01,0-.03-.03-.05-.04l-12.51-6.02c3.84-7.31,9.04-13.79,15.26-19.11Zm-17.17,23.08l12.51,6.03s.04,0,.06,.01c-2.38,5.51-3.8,11.52-4.07,17.82-.02,0-.04-.01-.06-.01h-13.87c.29-8.46,2.19-16.51,5.43-23.85Zm-5.43,28.27h13.87s.04-.02,.06-.02c.27,6.31,1.69,12.31,4.07,17.82-.02,.01-.04,0-.06,.01l-12.51,6.03c-3.24-7.33-5.14-15.38-5.43-23.84Zm7.34,27.81l12.52-6.03s.03-.02,.04-.03c2.92,5.43,6.81,10.25,11.42,14.27-.02,.02-.05,.03-.07,.05l-8.65,10.86c-6.22-5.33-11.42-11.81-15.26-19.12Zm43.84,18.95l-3.09,13.55c-8.08-2.13-15.54-5.77-22.05-10.62l8.66-10.87s.02-.04,.04-.06c4.89,3.58,10.45,6.3,16.46,7.95-.01,.01-.02,.03-.02,.05Zm13.43,15.69c-4.18,0-8.26-.41-12.22-1.17l3.09-13.54s-.01-.04,0-.06c2.96,.54,6.01,.84,9.13,.84s6.17-.3,9.14-.84v.06l3.09,13.54c-3.96,.76-8.04,1.17-12.23,1.17Zm16.54-2.14l-3.1-13.56s-.01-.03-.02-.04c6.01-1.65,11.57-4.37,16.46-7.96,.02,.02,.02,.05,.04,.07l8.66,10.87c-6.51,4.84-13.97,8.49-22.04,10.62Zm25.48-13.39l-8.66-10.85s-.04-.03-.06-.05c4.61-4.02,8.49-8.85,11.41-14.28,.02,.01,.03,.03,.05,.04l12.52,6.03c-3.84,7.31-9.04,13.79-15.26,19.11Zm17.17-23.09l-12.52-6.02s-.03-.01-.05-.02c2.37-5.51,3.79-11.52,4.06-17.82,.02,0,.04,.01,.06,.01h13.87c-.28,8.46-2.19,16.52-5.42,23.85Z"/></g><g id="Right_Gear"><g><rect class="cls-16" x="616.05" y="202.95" width="8.71" height="14.29" transform="translate(330.27 -377.16) rotate(45)"/><rect class="cls-16" x="560.19" y="258.81" width="8.71" height="14.29" transform="translate(353.41 -321.3) rotate(45)"/><rect class="cls-16" x="549.97" y="220.66" width="8.71" height="14.29" transform="translate(190.81 704.28) rotate(-75)"/><rect class="cls-16" x="626.28" y="241.1" width="8.71" height="14.29" transform="translate(227.62 793.14) rotate(-75)"/><rect class="cls-16" x="598.35" y="269.03" width="8.71" height="14.29" transform="translate(1256.35 386.96) rotate(165)"/><rect class="cls-16" x="577.9" y="192.73" width="8.71" height="14.29" transform="translate(1196.4 242.24) rotate(165)"/></g><path class="cls-7" d="M592.49,166.59c-39.39,0-71.44,32.04-71.44,71.43s32.05,71.44,71.44,71.44,71.44-32.04,71.44-71.44-32.04-71.43-71.44-71.43Zm63.11,57.35l-13.65,2.56s-.04,.02-.06,.02c-1.41-6.07-3.91-11.74-7.29-16.76,.02-.01,.04-.02,.06-.03l11.19-8.23c4.58,6.68,7.93,14.27,9.75,22.44Zm-17.19,14.08c0,25.38-20.56,45.93-45.93,45.93s-45.93-20.55-45.93-45.93,20.56-45.92,45.93-45.92,45.93,20.56,45.93,45.92Zm4.82-40.07l-11.18,8.22s-.04,.05-.06,.07c-3.84-4.77-8.53-8.82-13.83-11.95,.02-.02,.04-.03,.05-.06l6.51-12.26c7.14,4.11,13.42,9.55,18.51,15.98Zm-46.57-10.54l.54-13.86c8.43,.6,16.41,2.81,23.63,6.34l-6.51,12.28s-.01,.04-.02,.06c-5.42-2.6-11.38-4.24-17.65-4.76,0-.02,.01-.04,.01-.06Zm-4.17-14.05c.1,0,.2,0,.31,0l-.54,13.87s.01,.03,.01,.05c-6.33,.03-12.38,1.22-17.97,3.37,0-.01,0-.03-.01-.05l-5.53-12.74c7.35-2.9,15.35-4.51,23.73-4.51Zm-27.78,6.26l5.54,12.75s.02,.02,.03,.04c-5.55,2.71-10.52,6.41-14.71,10.85-.02-.01-.03-.04-.05-.06l-10.51-9.06c5.56-6.01,12.23-10.96,19.7-14.52Zm-22.58,17.86l10.51,9.06s.04,.02,.06,.04c-3.77,4.76-6.71,10.21-8.59,16.13-.01-.01-.02-.02-.03-.02l-13.43-3.62c2.44-7.96,6.38-15.27,11.48-21.59Zm-14.3,40.54c0-5.05,.59-9.97,1.69-14.69l13.41,3.62h.04c-.8,3.57-1.23,7.27-1.23,11.07,0,2.44,.18,4.84,.52,7.19h-.04l-13.66,2.56c-.48-3.18-.73-6.43-.73-9.75Zm1.55,14.09l13.65-2.57s.03-.01,.04-.01c1.41,6.07,3.91,11.74,7.29,16.76-.01,.01-.03,.01-.04,.02l-11.19,8.24c-4.58-6.68-7.93-14.27-9.75-22.44Zm12.37,25.98l11.18-8.22s.03-.04,.05-.05c3.84,4.76,8.52,8.82,13.82,11.94-.01,.02-.02,.03-.03,.05l-6.51,12.27c-7.14-4.12-13.42-9.56-18.51-15.99Zm46.57,10.54l-.54,13.87c-8.42-.61-16.41-2.81-23.63-6.34l6.51-12.28s.01-.03,.02-.05c5.42,2.59,11.38,4.24,17.65,4.75,0,.02-.01,.03-.01,.05Zm4.17,14.06c-.1,0-.2,0-.3,0l.54-13.87s-.01-.04-.01-.06c6.32-.03,12.37-1.23,17.96-3.38,0,.02,0,.04,0,.06l5.54,12.75c-7.35,2.9-15.35,4.51-23.74,4.51Zm27.79-6.26l-5.55-12.75s-.02-.04-.03-.05c5.54-2.72,10.52-6.41,14.71-10.86,.02,.02,.03,.05,.05,.07l10.52,9.07c-5.56,6.01-12.23,10.96-19.7,14.52Zm22.58-17.86l-10.52-9.07s-.05-.03-.07-.04c3.77-4.77,6.71-10.21,8.59-16.13,.02,0,.03,.02,.05,.02l13.42,3.62c-2.43,7.97-6.37,15.27-11.47,21.6Zm-.81-29.47s-.04-.01-.06-.01c.8-3.57,1.23-7.27,1.23-11.07,0-2.44-.18-4.83-.52-7.18,.02-.01,.04,0,.06-.01l13.66-2.56c.48,3.18,.74,6.44,.74,9.75,0,5.06-.6,9.97-1.7,14.69l-13.41-3.61Z"/></g><g id="Tape_Front"><g class="cls-1"><path class="cls-15" d="M792.43,1.63H41.87C19.03,1.63,.5,20.15,.5,43V487.5c0,22.85,18.53,41.36,41.37,41.36H792.43c22.84,0,41.37-18.52,41.37-41.36V43c0-22.85-18.53-41.36-41.37-41.36ZM81.31,473.29c-2.62,0-4.74-2.12-4.74-4.74s2.12-4.74,4.74-4.74,4.74,2.12,4.74,4.74-2.12,4.74-4.74,4.74Zm88.69,41.53c-9.28,0-16.84-7.55-16.84-16.84s7.55-16.84,16.84-16.84,16.84,7.55,16.84,16.84-7.55,16.84-16.84,16.84Zm92.57-14.66c-9.28,0-16.84-7.55-16.84-16.84s7.55-16.84,16.84-16.84,16.83,7.55,16.83,16.84-7.55,16.84-16.83,16.84Zm-20.38-216.21c-25.37,0-45.92-20.55-45.92-45.92s20.56-45.93,45.92-45.93,45.93,20.57,45.93,45.93-20.56,45.92-45.93,45.92Zm329.52,216.21c-9.28,0-16.84-7.55-16.84-16.84s7.55-16.84,16.84-16.84,16.84,7.55,16.84,16.84-7.55,16.84-16.84,16.84Zm20.75-216.21c-25.37,0-45.93-20.55-45.93-45.92s20.57-45.93,45.93-45.93,45.94,20.57,45.94,45.93-20.57,45.92-45.94,45.92Zm71.82,230.86c-9.28,0-16.84-7.55-16.84-16.84s7.55-16.84,16.84-16.84,16.84,7.55,16.84,16.84-7.55,16.84-16.84,16.84Zm88.69-41.53c-2.62,0-4.74-2.12-4.74-4.74s2.12-4.74,4.74-4.74,4.74,2.12,4.74,4.74-2.12,4.74-4.74,4.74Z"/></g><path class="cls-8" d="M59.32,368.64c-9.5,0-17.24-7.73-17.24-17.24V53.12c0-9.5,7.73-17.24,17.24-17.24H774.98c9.5,0,17.24,7.73,17.24,17.24V351.4c0,9.5-7.73,17.24-17.24,17.24H59.32Zm539.47-71.77c32.44,0,58.83-26.39,58.83-58.84s-26.39-58.83-58.83-58.83H235.52c-15.65,0-30.4,6.14-41.56,17.28-11.14,11.15-17.28,25.91-17.28,41.56,0,32.44,26.39,58.84,58.83,58.84h363.27Z"/><g><g><path class="cls-3" d="M26.04,516.68c-4.46,0-8.66-1.95-11.52-5.36-5.34-6.35-4.52-15.86,1.83-21.2,2.71-2.28,6.15-3.54,9.68-3.54,4.46,0,8.66,1.95,11.52,5.36,5.34,6.35,4.52,15.86-1.83,21.21-2.71,2.28-6.15,3.53-9.68,3.53Z"/><circle class="cls-4" cx="26.03" cy="501.63" r="13.71"/><path class="cls-13" d="M27.7,501.78c2.31-2.04,4.48-4.22,6.25-6.8-2.85,1.3-5.36,3.06-7.77,4.99-2.04-2.31-4.22-4.48-6.8-6.25,1.3,2.85,3.06,5.36,4.99,7.77-2.32,2.04-4.48,4.21-6.25,6.8,2.85-1.3,5.36-3.06,7.77-4.99,2.04,2.32,4.21,4.48,6.8,6.25-1.3-2.85-3.06-5.37-4.99-7.77Z"/></g><g><path class="cls-3" d="M808.28,516.69c-.92,0-1.84-.09-2.75-.25-3.95-.73-7.38-2.96-9.66-6.27-2.28-3.31-3.13-7.31-2.4-11.27,1.32-7.14,7.54-12.31,14.78-12.31,.92,0,1.84,.09,2.75,.25,3.95,.73,7.38,2.96,9.66,6.27,2.28,3.31,3.13,7.31,2.4,11.27-1.32,7.14-7.54,12.31-14.78,12.31Z"/><circle class="cls-4" cx="808.27" cy="501.63" r="13.71"/><path class="cls-13" d="M809.22,503.01c3.05,.49,6.1,.78,9.22,.5-2.82-1.37-5.77-2.2-8.79-2.83,.49-3.05,.78-6.1,.5-9.22-1.37,2.82-2.2,5.77-2.83,8.79-3.05-.49-6.1-.78-9.22-.5,2.81,1.38,5.77,2.2,8.79,2.83-.49,3.05-.78,6.1-.5,9.22,1.38-2.82,2.2-5.77,2.83-8.79Z"/></g><g><path class="cls-3" d="M26.04,41.76c-5.32,0-10.14-2.71-12.89-7.26-2.08-3.44-2.7-7.48-1.74-11.39s3.38-7.2,6.82-9.28c2.35-1.42,5.04-2.18,7.78-2.18,5.32,0,10.14,2.71,12.89,7.26,2.08,3.44,2.7,7.48,1.74,11.39-.96,3.9-3.38,7.2-6.82,9.28-2.35,1.42-5.04,2.18-7.78,2.18Z"/><circle class="cls-4" cx="26.03" cy="26.71" r="13.71"/><path class="cls-13" d="M25.63,28.34c1.66,2.6,3.47,5.07,5.75,7.22-.85-3.02-2.19-5.77-3.73-8.45,2.6-1.66,5.08-3.47,7.22-5.75-3.02,.85-5.77,2.19-8.45,3.73-1.66-2.6-3.47-5.08-5.76-7.22,.84,3.02,2.19,5.77,3.73,8.45-2.6,1.66-5.08,3.47-7.22,5.76,3.02-.84,5.77-2.19,8.45-3.73Z"/></g><g><path class="cls-3" d="M808.28,41.76c-.89,0-1.78-.08-2.66-.24-3.96-.71-7.4-2.91-9.7-6.21-2.3-3.3-3.17-7.29-2.47-11.25,1.28-7.19,7.51-12.41,14.8-12.41,.89,0,1.78,.08,2.66,.24,3.96,.71,7.4,2.91,9.7,6.21,2.3,3.3,3.17,7.29,2.47,11.25-1.28,7.19-7.51,12.41-14.8,12.41Z"/><circle class="cls-4" cx="808.27" cy="26.71" r="13.71"/><path class="cls-13" d="M809.22,28.08c3.05,.47,6.1,.74,9.22,.45-2.83-1.36-5.78-2.16-8.81-2.78,.47-3.05,.74-6.11,.45-9.23-1.36,2.82-2.16,5.78-2.78,8.81-3.05-.47-6.11-.74-9.23-.44,2.82,1.36,5.78,2.17,8.81,2.78-.47,3.05-.74,6.1-.44,9.22,1.36-2.82,2.17-5.78,2.78-8.81Z"/></g></g><g><path class="cls-3" d="M81.31,441.13c-15.11,0-27.41,12.3-27.41,27.41s12.3,27.41,27.41,27.41,27.41-12.3,27.41-27.41-12.3-27.41-27.41-27.41Zm0,32.15c-2.62,0-4.74-2.12-4.74-4.74s2.12-4.74,4.74-4.74,4.74,2.12,4.74,4.74-2.12,4.74-4.74,4.74Z"/><path class="cls-3" d="M752.98,441.13c-15.11,0-27.41,12.3-27.41,27.41s12.3,27.41,27.41,27.41,27.41-12.3,27.41-27.41-12.3-27.41-27.41-27.41Zm0,32.15c-2.62,0-4.74-2.12-4.74-4.74s2.12-4.74,4.74-4.74,4.74,2.12,4.74,4.74-2.12,4.74-4.74,4.74Z"/></g><g><path class="cls-6" d="M81.31,444.13c-13.48,0-24.41,10.93-24.41,24.41s10.93,24.41,24.41,24.41,24.41-10.93,24.41-24.41-10.93-24.41-24.41-24.41Zm0,29.15c-2.62,0-4.74-2.12-4.74-4.74s2.12-4.74,4.74-4.74,4.74,2.12,4.74,4.74-2.12,4.74-4.74,4.74Z"/><path class="cls-6" d="M752.98,444.13c-13.48,0-24.41,10.93-24.41,24.41s10.93,24.41,24.41,24.41,24.41-10.93,24.41-24.41-10.93-24.41-24.41-24.41Zm0,29.15c-2.62,0-4.74-2.12-4.74-4.74s2.12-4.74,4.74-4.74,4.74,2.12,4.74,4.74-2.12,4.74-4.74,4.74Z"/></g><g><path class="cls-3" d="M688.04,403.36c-.47-1.61-1.95-2.72-3.63-2.72H149.89c-1.68,0-3.16,1.11-3.63,2.72l-36.9,125.5H724.94l-36.9-125.5Zm-518.03,111.46c-9.28,0-16.84-7.55-16.84-16.84s7.55-16.84,16.84-16.84,16.84,7.55,16.84,16.84-7.55,16.84-16.84,16.84Zm92.57-14.66c-9.28,0-16.84-7.55-16.84-16.84s7.55-16.84,16.84-16.84,16.83,7.55,16.83,16.84-7.55,16.84-16.83,16.84Zm309.15,0c-9.28,0-16.84-7.55-16.84-16.84s7.55-16.84,16.84-16.84,16.84,7.55,16.84,16.84-7.55,16.84-16.84,16.84Zm92.57,14.66c-9.28,0-16.84-7.55-16.84-16.84s7.55-16.84,16.84-16.84,16.84,7.55,16.84,16.84-7.55,16.84-16.84,16.84Z"/><path class="cls-14" d="M685.2,407.14c-.47-1.61-1.95-2.72-3.64-2.72H152.73c-1.68,0-3.16,1.11-3.64,2.73l-34.68,118.44H719.89l-34.69-118.44Zm-515.2,107.68c-9.28,0-16.84-7.55-16.84-16.84s7.55-16.84,16.84-16.84,16.84,7.55,16.84,16.84-7.55,16.84-16.84,16.84Zm92.57-14.66c-9.28,0-16.84-7.55-16.84-16.84s7.55-16.84,16.84-16.84,16.83,7.55,16.83,16.84-7.55,16.84-16.83,16.84Zm309.15,0c-9.28,0-16.84-7.55-16.84-16.84s7.55-16.84,16.84-16.84,16.84,7.55,16.84,16.84-7.55,16.84-16.84,16.84Zm92.57,14.66c-9.28,0-16.84-7.55-16.84-16.84s7.55-16.84,16.84-16.84,16.84,7.55,16.84,16.84-7.55,16.84-16.84,16.84Z"/><path class="cls-6" d="M684.2,408.55c-.48-1.61-1.99-2.72-3.71-2.72H153.8c-1.72,0-3.23,1.11-3.71,2.73l-34.53,115.62H718.74l-34.54-115.62Zm-514.2,106.27c-9.28,0-16.84-7.55-16.84-16.84s7.55-16.84,16.84-16.84,16.84,7.55,16.84,16.84-7.55,16.84-16.84,16.84Zm92.57-14.66c-9.28,0-16.84-7.55-16.84-16.84s7.55-16.84,16.84-16.84,16.83,7.55,16.83,16.84-7.55,16.84-16.83,16.84Zm309.15,0c-9.28,0-16.84-7.55-16.84-16.84s7.55-16.84,16.84-16.84,16.84,7.55,16.84,16.84-7.55,16.84-16.84,16.84Zm92.57,14.66c-9.28,0-16.84-7.55-16.84-16.84s7.55-16.84,16.84-16.84,16.84,7.55,16.84,16.84-7.55,16.84-16.84,16.84Z"/></g><g id="Lower_Holes"><path class="cls-3" d="M571.72,468.49c8.18,0,14.84,6.66,14.84,14.84s-6.66,14.84-14.84,14.84-14.84-6.66-14.84-14.84,6.66-14.84,14.84-14.84m-309.15,0c8.18,0,14.83,6.66,14.83,14.84s-6.65,14.84-14.83,14.84-14.84-6.66-14.84-14.84,6.66-14.84,14.84-14.84m401.72,14.66c8.18,0,14.84,6.66,14.84,14.84s-6.66,14.84-14.84,14.84-14.84-6.66-14.84-14.84,6.66-14.84,14.84-14.84m-494.28,0c8.18,0,14.84,6.66,14.84,14.84s-6.66,14.84-14.84,14.84-14.84-6.66-14.84-14.84,6.66-14.84,14.84-14.84m401.71-16.66c-9.28,0-16.84,7.55-16.84,16.84s7.55,16.84,16.84,16.84,16.84-7.55,16.84-16.84-7.55-16.84-16.84-16.84h0Zm-309.15,0c-9.28,0-16.84,7.55-16.84,16.84s7.55,16.84,16.84,16.84,16.83-7.55,16.83-16.84-7.55-16.84-16.83-16.84h0Zm401.72,14.66c-9.28,0-16.84,7.55-16.84,16.84s7.55,16.84,16.84,16.84,16.84-7.55,16.84-16.84-7.55-16.84-16.84-16.84h0Zm-494.28,0c-9.28,0-16.84,7.55-16.84,16.84s7.55,16.84,16.84,16.84,16.84-7.55,16.84-16.84-7.55-16.84-16.84-16.84h0Z"/></g></g><g id="Center_Screw"><path class="cls-3" d="M417.15,445.87c-4.02,0-7.8-1.57-10.64-4.41-5.87-5.87-5.87-15.42,0-21.28,2.84-2.84,6.62-4.41,10.64-4.41s7.8,1.57,10.64,4.41c2.84,2.84,4.41,6.62,4.41,10.64s-1.57,7.8-4.41,10.64c-2.84,2.84-6.62,4.41-10.64,4.41Z"/><circle class="cls-4" cx="417.15" cy="430.83" r="13.71"/><path class="cls-13" d="M418.82,430.82c2.13-2.23,4.1-4.58,5.64-7.31-2.73,1.54-5.08,3.51-7.31,5.64-2.23-2.13-4.59-4.1-7.31-5.64,1.54,2.73,3.51,5.08,5.64,7.31-2.13,2.23-4.1,4.58-5.64,7.31,2.73-1.54,5.08-3.51,7.31-5.64,2.23,2.13,4.58,4.1,7.31,5.64-1.54-2.73-3.51-5.08-5.64-7.31Z"/></g></svg>